<svg width="100" height="100" viewBox="0 0 100 100" fill="none" xmlns="http://www.w3.org/2000/svg">
<path fill-rule="evenodd" clip-rule="evenodd" d="M47.9167 12.5H12.5V37.5H47.9167V12.5ZM30.2083 33.3333C30.7609 33.3333 31.2908 33.1138 31.6815 32.7231C32.0722 32.3324 32.2917 31.8025 32.2917 31.25C32.2917 30.6975 32.0722 30.1676 31.6815 29.7769C31.2908 29.3862 30.7609 29.1667 30.2083 29.1667C29.6558 29.1667 29.1259 29.3862 28.7352 29.7769C28.3445 30.1676 28.125 30.6975 28.125 31.25C28.125 31.8025 28.3445 32.3324 28.7352 32.7231C29.1259 33.1138 29.6558 33.3333 30.2083 33.3333ZM28.125 18.75C28.125 18.1975 28.3445 17.6676 28.7352 17.2769C29.1259 16.8862 29.6558 16.6667 30.2083 16.6667C30.7609 16.6667 31.2908 16.8862 31.6815 17.2769C32.0722 17.6676 32.2917 18.1975 32.2917 18.75V25C32.2917 25.5525 32.0722 26.0824 31.6815 26.4731C31.2908 26.8638 30.7609 27.0833 30.2083 27.0833C29.6558 27.0833 29.1259 26.8638 28.7352 26.4731C28.3445 26.0824 28.125 25.5525 28.125 25V18.75ZM87.5 12.5H52.0833V37.5H87.5V12.5ZM83.7646 19.1813L71.875 31.0708L66.6667 25.8625L61.8896 30.6396L58.9437 27.6938L66.6667 19.9708L71.875 25.1792L80.8187 16.2354L83.7646 19.1813ZM12.5 66.6667V41.6667H47.9167V50.1729C46.1188 50.4768 44.4092 51.1702 42.9077 52.2045C41.4061 53.2388 40.1489 54.5889 39.2241 56.1604C38.2994 57.7318 37.7295 59.4864 37.5543 61.3013C37.3792 63.1162 37.6032 64.9474 38.2104 66.6667H12.5ZM18.75 52.0833V47.9167H22.9167V52.0833H18.75ZM18.75 56.25V60.4167H22.9167V56.25H18.75ZM27.0833 52.0833V47.9167H31.25V52.0833H27.0833ZM27.0833 56.25V60.4167H31.25V56.25H27.0833ZM35.4167 52.0833V47.9167H39.5833V52.0833H35.4167ZM62.5 62.5C62.5014 63.9192 62.2612 65.3282 61.7896 66.6667H87.5V41.6667H52.0833V50.1729C57.9958 51.1646 62.5 56.3063 62.5 62.5ZM66.6667 52.0833H81.25C81.8025 52.0833 82.3324 51.8638 82.7231 51.4731C83.1138 51.0824 83.3333 50.5525 83.3333 50C83.3333 49.4475 83.1138 48.9176 82.7231 48.5269C82.3324 48.1362 81.8025 47.9167 81.25 47.9167H66.6667C66.1141 47.9167 65.5842 48.1362 65.1935 48.5269C64.8028 48.9176 64.5833 49.4475 64.5833 50C64.5833 50.5525 64.8028 51.0824 65.1935 51.4731C65.5842 51.8638 66.1141 52.0833 66.6667 52.0833ZM66.6667 58.3333C66.6667 58.8859 66.8862 59.4158 67.2769 59.8065C67.6676 60.1972 68.1975 60.4167 68.75 60.4167H81.25C81.8025 60.4167 82.3324 60.1972 82.7231 59.8065C83.1138 59.4158 83.3333 58.8859 83.3333 58.3333C83.3333 57.7808 83.1138 57.2509 82.7231 56.8602C82.3324 56.4695 81.8025 56.25 81.25 56.25H68.75C68.1975 56.25 67.6676 56.4695 67.2769 56.8602C66.8862 57.2509 66.6667 57.7808 66.6667 58.3333Z" fill="#749FE0"/>
<path d="M58.3333 62.5001C58.3333 64.7102 57.4553 66.8298 55.8925 68.3926C54.3297 69.9554 52.2101 70.8334 49.9999 70.8334C47.7898 70.8334 45.6702 69.9554 44.1074 68.3926C42.5446 66.8298 41.6666 64.7102 41.6666 62.5001C41.6666 60.2899 42.5446 58.1703 44.1074 56.6075C45.6702 55.0447 47.7898 54.1667 49.9999 54.1667C52.2101 54.1667 54.3297 55.0447 55.8925 56.6075C57.4553 58.1703 58.3333 60.2899 58.3333 62.5001ZM49.9999 72.9167C46.7644 72.9574 43.5428 73.3486 40.3916 74.0834C38.7999 74.4688 37.2228 74.9834 35.9937 75.6709C34.9187 76.273 33.3333 77.448 33.3333 79.4209V87.5001H66.6666V79.4188C66.6666 77.448 65.0812 76.273 64.0062 75.6688C62.777 74.9834 61.1999 74.4688 59.6082 74.0834C56.457 73.3486 53.2354 72.9574 49.9999 72.9167Z" fill="#749FE0"/>
</svg>
