<svg width="60" height="60" viewBox="0 0 60 60" fill="none" xmlns="http://www.w3.org/2000/svg">
<circle cx="30" cy="30" r="30" fill="#1A709B" fill-opacity="0.2"/>
<path d="M50 19.9541V41.2504C50.0001 42.9721 49.4153 44.6288 48.3654 45.8814C47.3155 47.1341 45.8798 47.8881 44.352 47.9891L44 48.0004H16C14.4696 48.0004 12.997 47.3426 11.8835 46.1615C10.77 44.9803 10.0998 43.3651 10.01 41.6464L10 41.2504V19.9541L28.89 34.1224L29.122 34.2709C29.3954 34.4211 29.6957 34.4993 30 34.4993C30.3043 34.4993 30.6046 34.4211 30.878 34.2709L31.11 34.1224L50 19.9541Z" fill="#1A709B"/>
<path d="M44.0001 12C46.1601 12 48.0541 13.2825 49.1101 15.2108L30.0001 29.5432L10.8901 15.2108C11.3917 14.2946 12.0807 13.5266 12.8997 12.9709C13.7186 12.4151 14.6438 12.0876 15.5981 12.0157L16.0001 12H44.0001Z" fill="#1A709B"/>
</svg>
