<svg width="175" height="175" viewBox="0 0 175 175" fill="none" xmlns="http://www.w3.org/2000/svg">
<path d="M80.2082 131.25H94.7915V153.125H80.2082V131.25ZM116.667 153.125V167.708H58.3332V153.125H116.667ZM145.833 131.25H29.1665C23.3667 131.244 17.806 128.938 13.7049 124.837C9.60384 120.736 7.2973 115.175 7.2915 109.375V29.1667C7.2973 23.3669 9.60384 17.8063 13.7049 13.7052C17.806 9.60408 23.3667 7.29754 29.1665 7.29175H145.833C151.633 7.29754 157.194 9.60408 161.295 13.7052C165.396 17.8063 167.702 23.3669 167.708 29.1667V109.375C167.702 115.175 165.396 120.736 161.295 124.837C157.194 128.938 151.633 131.244 145.833 131.25ZM29.1665 21.8751C27.2326 21.8751 25.378 22.6433 24.0105 24.0108C22.6431 25.3782 21.8748 27.2329 21.8748 29.1667V109.375C21.8748 111.309 22.6431 113.164 24.0105 114.531C25.378 115.899 27.2326 116.667 29.1665 116.667H145.833C147.767 116.667 149.622 115.899 150.989 114.531C152.357 113.164 153.125 111.309 153.125 109.375V29.1667C153.125 27.2329 152.357 25.3782 150.989 24.0108C149.622 22.6433 147.767 21.8751 145.833 21.8751H29.1665Z" fill="url(#paint0_linear_124_57)"/>
<path d="M116.667 109.375L102.711 62.8542L94.7918 94.7917L85.247 72.9167H82.8335L72.9168 102.083L64.4804 72.4282L60.5866 80.2084H36.4585V72.9167H56.0804L65.6252 51.0417L73.4127 78.1157L77.5835 65.6251H89.7533L93.3043 72.7199L102.083 29.1667L116.667 87.5001L121.333 72.9167H138.542V80.2084H126.584L116.667 109.375Z" fill="url(#paint1_linear_124_57)"/>
<defs>
<linearGradient id="paint0_linear_124_57" x1="87.4998" y1="7.29175" x2="87.4998" y2="167.708" gradientUnits="userSpaceOnUse">
<stop stop-color="#749FE0"/>
<stop offset="1" stop-color="#3F577A"/>
</linearGradient>
<linearGradient id="paint1_linear_124_57" x1="87.5002" y1="29.1667" x2="87.5002" y2="109.375" gradientUnits="userSpaceOnUse">
<stop stop-color="#749FE0"/>
<stop offset="1" stop-color="#3F577A"/>
</linearGradient>
</defs>
</svg>
