<svg width="50" height="55" viewBox="0 0 50 55" fill="none" xmlns="http://www.w3.org/2000/svg">
<path d="M25 0C11.2059 0 0 10.4775 0 23.375C0 36.2725 11.2059 46.75 25 46.75H26.4706V55C40.7647 48.565 50 35.75 50 23.375C50 10.4775 38.7941 0 25 0ZM27.9412 39.875H22.0588V34.375H27.9412V39.875ZM27.9412 30.25H22.0588C22.0588 21.3125 30.8824 22 30.8824 16.5C30.8824 13.475 28.2353 11 25 11C21.7647 11 19.1176 13.475 19.1176 16.5H13.2353C13.2353 10.4225 18.5 5.5 25 5.5C31.5 5.5 36.7647 10.4225 36.7647 16.5C36.7647 23.375 27.9412 24.0625 27.9412 30.25Z" fill="#1A709B" fill-opacity="0.5"/>
</svg>
