<svg width="100" height="100" viewBox="0 0 100 100" fill="none" xmlns="http://www.w3.org/2000/svg">
<path d="M87.4999 29.1667C88.605 29.1667 89.6648 29.6057 90.4462 30.3871C91.2276 31.1685 91.6666 32.2283 91.6666 33.3334C91.6666 34.4385 91.2276 35.4983 90.4462 36.2797C89.6648 37.0611 88.605 37.5001 87.4999 37.5001V79.1668C88.605 79.1668 89.6648 79.6057 90.4462 80.3871C91.2276 81.1685 91.6666 82.2283 91.6666 83.3334C91.6666 84.4385 91.2276 85.4983 90.4462 86.2797C89.6648 87.0611 88.605 87.5001 87.4999 87.5001H12.4999C11.3949 87.5001 10.335 87.0611 9.55364 86.2797C8.77224 85.4983 8.33325 84.4385 8.33325 83.3334C8.33325 82.2283 8.77224 81.1685 9.55364 80.3871C10.335 79.6057 11.3949 79.1668 12.4999 79.1668V37.5001C11.3949 37.5001 10.335 37.0611 9.55364 36.2797C8.77224 35.4983 8.33325 34.4385 8.33325 33.3334C8.33325 32.2283 8.77224 31.1685 9.55364 30.3871C10.335 29.6057 11.3949 29.1667 12.4999 29.1667H87.4999ZM29.1666 45.8334C28.0615 45.8334 27.0017 46.2724 26.2203 47.0538C25.4389 47.8352 24.9999 48.895 24.9999 50.0001V79.1668H33.3333V50.0001C33.3333 48.895 32.8943 47.8352 32.1129 47.0538C31.3315 46.2724 30.2717 45.8334 29.1666 45.8334ZM49.9999 45.8334C48.8949 45.8334 47.835 46.2724 47.0536 47.0538C46.2722 47.8352 45.8333 48.895 45.8333 50.0001V79.1668H54.1666V50.0001C54.1666 48.895 53.7276 47.8352 52.9462 47.0538C52.1648 46.2724 51.105 45.8334 49.9999 45.8334ZM70.8333 45.8334C69.7282 45.8334 68.6684 46.2724 67.887 47.0538C67.1056 47.8352 66.6666 48.895 66.6666 50.0001V79.1668H74.9999V50.0001C74.9999 48.895 74.5609 47.8352 73.7795 47.0538C72.9981 46.2724 71.9383 45.8334 70.8333 45.8334ZM74.9999 16.6667C76.105 16.6667 77.1648 17.1057 77.9462 17.8871C78.7276 18.6685 79.1666 19.7283 79.1666 20.8334C79.1666 21.9385 78.7276 22.9983 77.9462 23.7797C77.1648 24.5611 76.105 25.0001 74.9999 25.0001H24.9999C23.8949 25.0001 22.835 24.5611 22.0536 23.7797C21.2722 22.9983 20.8333 21.9385 20.8333 20.8334C20.8333 19.7283 21.2722 18.6685 22.0536 17.8871C22.835 17.1057 23.8949 16.6667 24.9999 16.6667H74.9999Z" fill="#749FE0"/>
</svg>
