<svg width="170" height="170" viewBox="0 0 170 170" fill="none" xmlns="http://www.w3.org/2000/svg">
<path fill-rule="evenodd" clip-rule="evenodd" d="M81.4583 21.25H21.25V63.75H81.4583V21.25ZM51.3542 56.6667C52.2935 56.6667 53.1943 56.2935 53.8585 55.6293C54.5227 54.9651 54.8958 54.0643 54.8958 53.125C54.8958 52.1857 54.5227 51.2849 53.8585 50.6207C53.1943 49.9565 52.2935 49.5833 51.3542 49.5833C50.4149 49.5833 49.514 49.9565 48.8498 50.6207C48.1856 51.2849 47.8125 52.1857 47.8125 53.125C47.8125 54.0643 48.1856 54.9651 48.8498 55.6293C49.514 56.2935 50.4149 56.6667 51.3542 56.6667ZM47.8125 31.875C47.8125 30.9357 48.1856 30.0349 48.8498 29.3707C49.514 28.7065 50.4149 28.3333 51.3542 28.3333C52.2935 28.3333 53.1943 28.7065 53.8585 29.3707C54.5227 30.0349 54.8958 30.9357 54.8958 31.875V42.5C54.8958 43.4393 54.5227 44.3401 53.8585 45.0043C53.1943 45.6685 52.2935 46.0417 51.3542 46.0417C50.4149 46.0417 49.514 45.6685 48.8498 45.0043C48.1856 44.3401 47.8125 43.4393 47.8125 42.5V31.875ZM148.75 21.25H88.5417V63.75H148.75V21.25ZM142.4 32.6081L122.188 52.8204L113.333 43.9662L105.212 52.0873L100.204 47.0794L113.333 33.9504L122.188 42.8046L137.392 27.6002L142.4 32.6081ZM21.25 113.333V70.8333H81.4583V85.294C78.402 85.8106 75.4957 86.9893 72.943 88.7476C70.3903 90.5059 68.2531 92.8012 66.681 95.4726C65.1089 98.144 64.1401 101.127 63.8424 104.212C63.5447 107.298 63.9254 110.411 64.9577 113.333H21.25ZM31.875 88.5417V81.4583H38.9583V88.5417H31.875ZM31.875 95.625V102.708H38.9583V95.625H31.875ZM46.0417 88.5417V81.4583H53.125V88.5417H46.0417ZM46.0417 95.625V102.708H53.125V95.625H46.0417ZM60.2083 88.5417V81.4583H67.2917V88.5417H60.2083ZM106.25 106.25C106.252 108.663 105.844 111.058 105.042 113.333H148.75V70.8333H88.5417V85.294C98.5929 86.9798 106.25 95.7206 106.25 106.25ZM113.333 88.5417H138.125C139.064 88.5417 139.965 88.1685 140.629 87.5043C141.294 86.8401 141.667 85.9393 141.667 85C141.667 84.0607 141.294 83.1599 140.629 82.4957C139.965 81.8315 139.064 81.4583 138.125 81.4583H113.333C112.394 81.4583 111.493 81.8315 110.829 82.4957C110.165 83.1599 109.792 84.0607 109.792 85C109.792 85.9393 110.165 86.8401 110.829 87.5043C111.493 88.1685 112.394 88.5417 113.333 88.5417ZM113.333 99.1667C113.333 100.106 113.706 101.007 114.371 101.671C115.035 102.335 115.936 102.708 116.875 102.708H138.125C139.064 102.708 139.965 102.335 140.629 101.671C141.294 101.007 141.667 100.106 141.667 99.1667C141.667 98.2274 141.294 97.3265 140.629 96.6623C139.965 95.9981 139.064 95.625 138.125 95.625H116.875C115.936 95.625 115.035 95.9981 114.371 96.6623C113.706 97.3265 113.333 98.2274 113.333 99.1667Z" fill="url(#paint0_linear_124_84)"/>
<path d="M99.1665 106.25C99.1665 110.007 97.6739 113.61 95.0172 116.267C92.3604 118.924 88.7571 120.417 84.9998 120.417C81.2426 120.417 77.6393 118.924 74.9825 116.267C72.3257 113.61 70.8332 110.007 70.8332 106.25C70.8332 102.493 72.3257 98.8893 74.9825 96.2326C77.6393 93.5758 81.2426 92.0833 84.9998 92.0833C88.7571 92.0833 92.3604 93.5758 95.0172 96.2326C97.6739 98.8893 99.1665 102.493 99.1665 106.25ZM84.9998 123.958C79.4995 124.027 74.0228 124.692 68.6657 125.942C65.9598 126.597 63.2788 127.472 61.1892 128.64C59.3617 129.664 56.6665 131.661 56.6665 135.015V148.75H113.333V135.012C113.333 131.661 110.638 129.664 108.81 128.637C106.721 127.472 104.04 126.597 101.334 125.942C95.9769 124.692 90.5002 124.027 84.9998 123.958Z" fill="url(#paint1_linear_124_84)"/>
<defs>
<linearGradient id="paint0_linear_124_84" x1="85" y1="21.25" x2="85" y2="113.333" gradientUnits="userSpaceOnUse">
<stop stop-color="#749FE0"/>
<stop offset="1" stop-color="#3F577A"/>
</linearGradient>
<linearGradient id="paint1_linear_124_84" x1="84.9998" y1="92.0833" x2="84.9998" y2="148.75" gradientUnits="userSpaceOnUse">
<stop stop-color="#749FE0"/>
<stop offset="1" stop-color="#3F577A"/>
</linearGradient>
</defs>
</svg>
