<svg width="200" height="200" viewBox="0 0 200 200" fill="none" xmlns="http://www.w3.org/2000/svg">
<path d="M50 200V150H0V110H64.5L81.5 135.5C82.3333 136.833 83.5 137.917 85 138.75C86.5 139.583 88.0833 140 89.75 140C91.9167 140 93.9167 139.333 95.75 138C97.5833 136.667 98.8333 135 99.5 133L113 92.5L121.5 105.5C122.5 106.833 123.75 107.917 125.25 108.75C126.75 109.583 128.333 110 130 110H200V150H150V200H50ZM87 107.5L78.25 94.5C77.4167 93.1667 76.25 92.0833 74.75 91.25C73.25 90.4167 71.6667 90 70 90H0V50H50V0H150V50H200V90H135.25L118.25 64.5C117.417 63.1667 116.25 62.0833 114.75 61.25C113.25 60.4167 111.667 60 110 60C107.833 60 105.877 60.6667 104.13 62C102.383 63.3333 101.173 65 100.5 67L87 107.5Z" fill="url(#paint0_linear_165_13)"/>
<defs>
<linearGradient id="paint0_linear_165_13" x1="100" y1="0" x2="100" y2="200" gradientUnits="userSpaceOnUse">
<stop stop-color="#467DCF"/>
<stop offset="1" stop-color="#244069"/>
</linearGradient>
</defs>
</svg>
