<svg width="100" height="100" viewBox="0 0 100 100" fill="none" xmlns="http://www.w3.org/2000/svg">
<path d="M73.4604 0C77.1424 0 80.5963 0.780814 83.8221 2.34244C87.0479 3.90407 89.8501 6.06061 92.2287 8.81205C94.6074 11.5635 96.4972 14.7797 97.8983 18.4607C99.2994 22.1417 100 26.0829 100 30.2844C100 32.441 99.8045 34.5789 99.4135 36.6983C99.0225 38.8176 98.436 40.8626 97.654 42.8332H75.0244L65.6403 31.6788L50 49.5259L28.1036 24.5399L12.4633 42.8332H2.34604C1.56403 40.8626 0.977517 38.8176 0.58651 36.6983C0.195503 34.5789 0 32.441 0 30.2844C0 26.0829 0.684262 22.1417 2.05279 18.4607C3.42131 14.7797 5.31118 11.5821 7.72239 8.86782C10.1336 6.15356 12.9521 3.99703 16.1779 2.39822C19.4037 0.799405 22.8576 0 26.5396 0C30.0912 0 33.48 0.762223 36.7058 2.28667C39.9316 3.81112 42.8153 6.00483 45.3568 8.86782L50 14.222L54.6432 8.86782C57.1522 6.00483 60.0196 3.81112 63.2454 2.28667C66.4712 0.762223 69.8762 0 73.4604 0ZM68.7683 49.9721H93.695L93.0108 50.8645C92.7827 51.1619 92.5383 51.478 92.2776 51.8126L50 100L7.72239 51.8126C7.46171 51.5152 7.21733 51.2177 6.98925 50.9202C6.76116 50.6228 6.53307 50.3068 6.30499 49.9721H18.7195L28.1036 39.71L50 64.696L65.6403 46.8489L68.7683 49.9721Z" fill="#749FE0"/>
</svg>
