<svg width="150" height="150" viewBox="0 0 150 150" fill="none" xmlns="http://www.w3.org/2000/svg">
<path d="M110.191 0C115.714 0 120.894 1.17122 125.733 3.51366C130.572 5.85611 134.775 9.09091 138.343 13.2181C141.911 17.3452 144.746 22.1695 146.848 27.691C148.949 33.2125 150 39.1244 150 45.4267C150 48.6615 149.707 51.8684 149.12 55.0474C148.534 58.2264 147.654 61.2939 146.481 64.2499H112.537L98.4604 47.5181L75 74.2889L42.1554 36.8098L18.695 64.2499H3.51906C2.34604 61.2939 1.46628 58.2264 0.879765 55.0474C0.293255 51.8684 0 48.6615 0 45.4267C0 39.1244 1.02639 33.2125 3.07918 27.691C5.13196 22.1695 7.96676 17.3731 11.5836 13.3017C15.2004 9.23034 19.4282 5.99554 24.2669 3.59732C29.1056 1.19911 34.2864 0 39.8094 0C45.1369 0 50.2199 1.14334 55.0586 3.43001C59.8974 5.71668 64.2229 9.00725 68.0352 13.3017L75 21.333L81.9648 13.3017C85.7282 9.00725 90.0293 5.71668 94.868 3.43001C99.7067 1.14334 104.814 0 110.191 0ZM103.152 74.9582H140.543L139.516 76.2967C139.174 76.7429 138.807 77.217 138.416 77.7189L75 150L11.5836 77.7189C11.1926 77.2727 10.826 76.8265 10.4839 76.3804C10.1417 75.9342 9.79961 75.4601 9.45748 74.9582H28.0792L42.1554 59.565L75 97.0441L98.4604 70.2733L103.152 74.9582Z" fill="url(#paint0_linear_124_2)"/>
<defs>
<linearGradient id="paint0_linear_124_2" x1="75" y1="0" x2="75" y2="150" gradientUnits="userSpaceOnUse">
<stop stop-color="#749FE0"/>
<stop offset="1" stop-color="#3F577A"/>
</linearGradient>
</defs>
</svg>
