<svg width="100" height="100" viewBox="0 0 100 100" fill="none" xmlns="http://www.w3.org/2000/svg">
<path d="M20.8333 24.9999C16.2499 24.9999 12.4999 28.7499 12.4999 33.3333C12.4999 37.9166 16.2499 41.6666 20.8333 41.6666C25.4166 41.6666 29.1666 37.9583 29.1666 33.3333C29.1666 28.7083 25.4583 24.9999 20.8333 24.9999ZM49.9999 16.6666C48.3517 16.6666 46.7406 17.1553 45.3702 18.071C43.9998 18.9867 42.9317 20.2882 42.3009 21.8109C41.6702 23.3336 41.5052 25.0092 41.8267 26.6257C42.1483 28.2422 42.9419 29.727 44.1074 30.8925C45.2728 32.0579 46.7577 32.8516 48.3742 33.1731C49.9907 33.4947 51.6662 33.3296 53.1889 32.6989C54.7117 32.0682 56.0132 31.0001 56.9288 29.6297C57.8445 28.2593 58.3333 26.6481 58.3333 24.9999C58.3333 20.3749 54.6249 16.6666 49.9999 16.6666ZM79.1666 8.33325C74.5833 8.33325 70.8333 12.0833 70.8333 16.6666C70.8333 21.2499 74.5833 24.9999 79.1666 24.9999C83.7499 24.9999 87.4999 21.2916 87.4999 16.6666C87.4999 12.0416 83.7916 8.33325 79.1666 8.33325ZM14.5833 45.8333C11.1249 45.8333 8.33325 48.6249 8.33325 52.0833V70.8333H12.4999V91.6666H29.1666V70.8333H33.3333V52.0833C33.3333 48.6249 30.5416 45.8333 27.0833 45.8333H14.5833ZM43.7499 37.4999C40.2916 37.4999 37.4999 40.2916 37.4999 43.7499V62.4999H41.6666V83.3333H58.3333V62.4999H62.4999V43.7499C62.4999 40.2916 59.7083 37.4999 56.2499 37.4999H43.7499ZM72.9166 29.1666C69.4583 29.1666 66.6666 31.9583 66.6666 35.4166V54.1666H70.8333V74.9999H87.4999V54.1666H91.6666V35.4166C91.6666 31.9583 88.8749 29.1666 85.4166 29.1666H72.9166Z" fill="#749FE0"/>
</svg>
