<svg width="234" height="22" viewBox="0 0 234 22" fill="none" xmlns="http://www.w3.org/2000/svg">
<path d="M15.744 5.736H15.72C16.68 6.696 17.28 8.016 17.28 9.48C17.28 12.84 14.904 14.736 12 14.736H5.592V17.28C5.592 19.416 6.336 20.664 6.6 21.024H0.84L0.936 20.904C1.2 20.544 1.848 19.416 1.848 17.28V7.92C1.848 5.304 0.84 4.2 0.84 4.2H12C13.464 4.2 14.784 4.776 15.744 5.736ZM10.584 13.68C11.712 13.68 13.536 12.12 13.536 9.48C13.536 7.248 11.712 5.256 9.48 5.256H5.568L5.592 13.68H10.584ZM27.6988 20.016H27.6748C31.3228 20.016 33.8188 16.584 33.8188 16.584C32.8348 19.152 29.9308 21.312 26.4028 21.312C21.6508 21.312 18.6748 18.024 18.6748 14.04C18.6748 10.056 21.6508 6.864 26.4028 6.864C30.1708 6.864 33.1228 8.856 33.9628 12.12C34.3228 13.536 33.2908 14.808 31.8508 14.808H22.6108C23.1628 17.4 24.7468 20.016 27.6988 20.016ZM25.1308 8.064H25.1068C22.6348 8.736 22.2268 11.4 22.3948 13.728H29.4988C30.0028 13.728 30.3868 13.2 30.3148 12.72C29.8828 9.984 27.9388 7.296 25.1308 8.064ZM44.1184 6.84H44.0464C47.5264 6.84 48.2944 8.64 48.2944 11.088C48.2944 11.928 47.6224 12.624 46.7824 12.624H44.5744C44.5744 12.624 46.3984 7.92 44.0944 7.92C41.1664 7.92 40.2784 9.72 40.2784 13.272L40.3024 17.304C40.3024 18.744 40.5904 19.704 40.8544 20.304L40.8784 20.352C41.0464 20.664 41.1904 20.856 41.2624 20.952L41.3104 21H35.5504L35.6464 20.88C35.9104 20.52 36.5584 19.392 36.5584 17.256L36.5344 10.848C36.5344 9.624 36.2944 8.688 36.0544 8.064C35.8384 7.512 35.6224 7.224 35.5744 7.152C37.5184 8.016 40.0864 8.064 42.0544 7.224C42.6304 6.984 43.3264 6.84 44.1184 6.84ZM56.6918 2.016L56.6678 1.968C60.9878 1.968 61.6358 3.696 61.6358 4.632C61.6358 5.472 60.9637 6.144 60.1238 6.144H57.9158C57.9158 6.144 59.1398 3.024 56.6678 3.024C55.7798 3.024 55.4198 3.744 55.4198 4.632V7.128H59.5238L59.4518 7.176C59.5238 7.128 57.9878 8.184 55.4198 8.184V17.256C55.4198 19.392 56.0678 20.52 56.3318 20.88L56.4278 21H50.6678L50.7158 20.952C50.7878 20.856 50.9318 20.664 51.0998 20.352L51.1238 20.304C51.3878 19.704 51.6758 18.744 51.6758 17.304V8.232H49.0838V7.176H51.6758V5.064C51.6758 3.384 53.3798 2.016 56.6918 2.016ZM66.5295 6.84C71.8095 6.84 74.2575 10.08 74.2575 14.064C74.2575 18.048 71.8095 21.288 66.5295 21.288C61.2495 21.288 58.8015 18.048 58.8015 14.064C58.8015 10.08 61.2495 6.84 66.5295 6.84ZM68.6415 19.872H68.6175C71.6655 18.768 71.1615 15.192 70.2735 12.72C69.3855 10.248 67.4895 7.152 64.4415 8.256C61.3935 9.36 61.9215 12.96 62.8095 15.432C63.6975 17.904 65.5935 20.976 68.6415 19.872ZM84.5012 6.84H84.4292C87.9092 6.84 88.6772 8.64 88.6772 11.088C88.6772 11.928 88.0052 12.624 87.1652 12.624H84.9572C84.9572 12.624 86.7812 7.92 84.4772 7.92C81.5492 7.92 80.6612 9.72 80.6612 13.272L80.6852 17.304C80.6852 18.744 80.9732 19.704 81.2372 20.304L81.2612 20.352C81.4292 20.664 81.5732 20.856 81.6452 20.952L81.6932 21H75.9332L76.0292 20.88C76.2932 20.52 76.9412 19.392 76.9412 17.256L76.9172 10.848C76.9172 9.624 76.6772 8.688 76.4372 8.064C76.2212 7.512 76.0052 7.224 75.9572 7.152C77.9012 8.016 80.4692 8.064 82.4372 7.224C83.0132 6.984 83.7092 6.84 84.5012 6.84ZM108.859 20.904L108.835 21.024C109.099 20.664 109.747 19.536 109.747 17.4V13.392C109.747 9.84 109.099 8.04 107.611 8.04C105.139 8.04 104.203 9.696 104.131 13.056V17.424C104.131 18.864 104.419 19.824 104.683 20.424L104.707 20.472C104.875 20.784 105.019 20.976 105.091 21.072L105.139 21.12H99.3786L99.4746 21C99.7386 20.64 100.387 19.512 100.387 17.376V13.368C100.387 13.344 100.387 13.344 100.387 13.32C100.387 9.768 99.7386 7.968 98.2506 7.968C95.7066 7.968 94.7466 9.768 94.7466 13.32L94.7706 17.352C94.7706 18.792 95.0586 19.752 95.3226 20.352L95.3466 20.4C95.5146 20.712 95.6586 20.904 95.7306 21L95.7786 21.048H90.0186L90.1146 20.928C90.3786 20.568 91.0266 19.44 91.0266 17.304L91.0026 10.896C91.0026 9.672 90.7626 8.736 90.5226 8.112C90.3066 7.56 90.0906 7.272 90.0426 7.2C91.9866 8.064 94.2186 8.112 96.1866 7.272C96.7626 7.032 97.7946 6.888 98.5866 6.888C100.651 6.888 102.043 7.896 102.859 9.48C103.675 8.184 105.331 6.888 107.539 6.888C111.739 6.888 113.515 10.128 113.515 14.112V17.328C113.515 18.768 113.803 19.728 114.067 20.328L114.091 20.376C114.259 20.688 114.403 20.88 114.475 20.976L114.523 21.024H108.763L108.859 20.904Z" fill="#467DCF"/>
<path d="M131.132 10.872L131.108 17.64C131.108 19.8 132.116 21 132.116 21H129.548C128.54 21 127.388 20.184 127.388 19.176C126.524 20.376 125.54 21.312 123.548 21.312C118.676 21.312 115.964 18.072 115.964 14.088C115.964 10.104 118.676 6.864 123.548 6.864C124.34 6.864 125.372 7.008 125.972 7.248C127.94 8.088 130.172 8.04 132.14 7.152C132.14 7.152 131.132 8.4 131.132 10.872ZM123.524 20.232V20.208C126.452 20.208 127.364 16.368 127.364 14.064C127.364 10.512 126.452 7.896 123.524 7.896C121.22 7.896 119.684 10.512 119.684 14.064C119.684 17.64 121.22 20.232 123.524 20.232ZM143.568 17.544H143.544C143.544 17.544 143.712 21.288 139.824 21.288C138.72 21.288 137.376 20.832 136.656 20.112C135.936 19.392 135.48 18.408 135.48 17.304V8.184H133.2V7.128C136.68 7.128 139.2 3.864 139.2 3.864V7.128H142.656C141.912 7.92 140.88 8.184 139.8 8.184H139.224V18.36C139.224 19.32 139.968 20.16 140.928 20.208C142.272 20.28 143.232 18.528 143.568 17.544ZM170.189 6.84H170.117C173.597 6.84 174.365 8.64 174.365 11.088C174.365 11.928 173.693 12.624 172.853 12.624H170.645C170.645 12.624 172.469 7.92 170.165 7.92C167.237 7.92 166.349 9.72 166.349 13.272L166.373 17.304C166.373 18.744 166.661 19.704 166.925 20.304L166.949 20.352C167.117 20.664 167.261 20.856 167.333 20.952L167.381 21H161.621L161.717 20.88C161.981 20.52 162.629 19.392 162.629 17.256L162.605 10.848C162.605 9.624 162.365 8.688 162.125 8.064C161.909 7.512 161.693 7.224 161.645 7.152C163.589 8.016 166.157 8.064 168.125 7.224C168.701 6.984 169.397 6.84 170.189 6.84ZM182.426 12.6V12.576C185.834 13.104 188.906 13.92 188.906 17.04C188.906 20.088 185.498 21.336 182.186 21.336C180.002 21.336 177.242 20.568 176.21 18.912C175.706 18.12 176.354 17.088 177.29 17.088H179.354C179.354 19.512 180.938 20.304 182.21 20.304C183.41 20.304 185.162 19.512 185.162 17.088C185.162 16.056 183.746 15.696 181.97 15.432C178.538 14.904 175.802 13.872 175.802 11.064C175.802 8.136 179.546 6.984 182.138 6.888C184.082 6.888 187.178 7.704 188.138 9.84C188.474 10.608 187.826 11.472 186.986 11.472H184.802C184.802 8.736 183.122 7.92 182.186 7.92C181.106 7.92 179.522 8.736 179.522 11.04C179.522 12.048 181.13 12.408 182.426 12.6Z" fill="#BC87D6"/>
<path d="M157.099 8.52539C155.728 6.97852 153.732 6 151.5 6C147.357 6 144 9.35742 144 13.5H145.875C145.875 10.3916 148.392 7.875 151.5 7.875C153.214 7.875 154.734 8.65137 155.763 9.86133L153.999 11.625H159V6.62402L157.099 8.52539ZM151.5 19.125C149.786 19.125 148.266 18.3486 147.237 17.1387L149.001 15.375H144V20.376L145.901 18.4746C147.272 20.0215 149.271 21 151.5 21C155.643 21 159 17.6426 159 13.5H157.125C157.125 16.6084 154.608 19.125 151.5 19.125Z" fill="#467DCF"/>
</svg>
