<svg width="1591" height="1080" viewBox="0 0 1591 1080" fill="none" xmlns="http://www.w3.org/2000/svg">
<mask id="mask0_35_756" style="mask-type:alpha" maskUnits="userSpaceOnUse" x="-248" y="-544" width="1532" height="1625">
<path d="M9.5315 315.844C-23.0552 372.74 -111.769 573.071 113.798 759.627C225.821 852.309 329.764 856.634 397.274 843.972C441.024 835.934 482.264 818.817 518.354 793.716L519.769 792.608L640.345 900.859L638.903 902.465C638.47 902.947 596.221 950.007 569.754 968.886L566.995 965.249C590.281 948.503 626.407 909.405 634.059 901.017L519.587 798.246C483.298 823.027 442.056 840.02 398.361 848.196C330.003 861.199 224.529 856.835 111.014 762.929C18.5617 686.424 -31.7969 598.863 -38.5082 502.741C-44.6623 415.997 -13.4292 346.921 5.68605 313.552L9.5315 315.844Z" fill="#FF725E"/>
<path d="M877.829 -248.801L1058.31 -86.7693L613.866 408.274L612.216 406.154C467.698 224.196 328.426 230.504 258.135 250.358C175.271 273.95 110.626 334.145 84.9218 411.085C69.2795 458.769 44.9956 580.088 160.773 680.666C217.444 729.862 307.685 780.248 415.944 741.05C456.272 725.955 492.582 702.346 522.454 671.797L523.896 670.19L750.304 873.456L748.891 875.03C732.595 893.584 676.447 955.722 675.899 956.333L674.284 958.131L648.904 930.241L684.896 890.152L521.258 743.647C484.655 770.233 442.969 789.326 398.494 799.873C331.262 815.513 229.911 814.675 128.347 723.493L125.012 720.499C51.3245 652.951 12.5628 572.668 12.9087 488.278C13.2782 397.353 59.5689 318.417 105.352 280.505C106.102 279.67 200.753 182.83 339.49 186.31C436.31 188.706 531.136 238.277 621.378 333.683L759.547 179.783L725.927 149.598L615.559 272.532L613.902 270.754C584.839 241.861 552.307 216.671 517.104 195.802C463.143 163.716 379.918 129.202 289.779 147.075C127.927 179.407 77.2057 234.292 40.1858 274.386C37.3018 277.599 34.4179 280.811 31.534 284.023L24.6334 292.448L-25.3978 247.53L-24.1 246.085C-23.1771 245.057 58.854 137.583 246.666 102.973C363.507 81.4586 467.27 93.1636 538.754 135.992L536.504 139.773C465.998 97.5328 363.372 86.0369 247.546 107.361C73.8231 139.361 -8.51619 234.027 -19.3362 247.287L24.0242 286.215L28.1788 281.185C31.0627 277.973 33.9466 274.761 36.8306 271.548C74.2588 231.067 125.528 175.57 288.668 142.945C380.119 124.684 464.5 159.655 519.21 192.181C554.069 212.92 586.355 237.814 615.323 266.287L725.575 143.481L765.733 179.535L621.537 340.149L619.88 338.371C530.031 242.796 435.693 193.084 339.557 190.663C202.724 187.21 109.318 282.731 108.39 283.696C63.1973 321.152 17.6292 398.881 17.2515 488.406C16.9639 571.456 55.2379 650.605 127.925 717.254C229.237 810.125 330.32 811.128 397.316 795.683C441.934 785.275 483.714 766.101 520.254 739.264L521.698 738.124L691.373 890.049L655.006 930.556L674.321 951.783C683.348 941.729 727.991 892.003 744.256 873.885L524.386 676.489C494.321 706.723 458.025 730.15 417.811 745.278C356.742 767.205 262.219 774.528 157.889 683.879L153.82 680.225C40.7824 578.742 65.0375 457.455 80.9196 409.639C106.955 331.256 172.78 270.148 256.99 246.198C317.01 229.13 426.748 221.834 547.252 329.963C571.429 351.927 593.748 375.846 613.963 401.457L1052.09 -86.5515L874.945 -245.588L877.829 -248.801Z" fill="#FF725E"/>
<path d="M829.691 -289.118L833.027 -286.123L573.473 2.98169L571.951 2.19495C570.977 1.66905 474.661 -48.659 343.248 -57.7467C222.021 -66.1022 45.2725 -40.1248 -108.643 131.314C-229.566 266.005 -269.966 425.068 -226.102 590.919C-189.658 728.064 -101.886 843.935 -37.813 901.459C56.746 986.352 305.577 1167.86 573.323 1020.53C596.941 1006.33 619.466 990.457 640.731 973.027L643.662 976.471C622.278 994.026 599.627 1010.02 575.876 1024.33C305.525 1173.15 54.7247 990.281 -40.468 904.819C-105.008 846.876 -193.402 730.155 -230.168 592.026C-274.656 424.455 -233.671 264.002 -111.883 128.348C43.1863 -44.3764 221.418 -70.5301 343.592 -62.0211C422.415 -56.6013 500.048 -36.3567 572.367 -2.3621L829.691 -289.118Z" fill="#FF725E"/>
<path d="M687.614 -80.944L690.949 -77.9496L574.696 51.0706L573.093 50.0377C572.726 49.7083 530.02 21.9267 458.789 3.57552C393.024 -13.3492 288.827 -25.4436 165.646 13.0631C-10.209 68.0373 -78.8765 170.221 -79.5506 171.24C-175.735 295.015 -209.503 428.24 -180.118 567.344C-149.439 712.655 -59.0379 818.82 -7.92528 869.175C32.0371 908.534 110.672 966.948 200.726 1001.91C322.798 1049.31 435.675 1045.3 536.27 989.877L538.683 993.899C436.975 1049.89 322.855 1053.94 199.531 1006.06C108.717 970.936 29.5732 911.949 -10.7227 872.291C-62.2022 821.606 -153.226 714.592 -184.177 568.108C-213.844 427.708 -179.755 293.32 -82.9166 168.682C-82.1956 167.879 -12.872 64.4282 164.444 8.96721C288.746 -29.9832 393.889 -17.7353 460.228 -0.643977C524.374 15.8708 565.636 40.0938 574.122 45.3347L687.614 -80.944Z" fill="#FF725E"/>
<path d="M963.851 -118.837L999.707 -86.6466L795.871 140.397L758.347 106.709L936.545 -91.7774L939.881 -88.7829L764.567 106.491L795.419 134.19L993.487 -86.4288L960.967 -115.625L963.851 -118.837Z" fill="#FF725E"/>
<path d="M509.717 852.852L569.521 906.543L568.021 908.214C511.782 966.964 450.312 983.366 408.658 986.754C383.789 989.046 358.551 987.067 334.034 980.905L341.981 1035.73L337.65 1036.19L328.555 974.594L331.846 975.692C333.088 976.053 457.704 1015.12 563.102 906.582L508.201 857.292C495.472 866.17 401.515 928.419 325.068 898.365L326.731 934.087C335.548 938.289 397.154 963.605 497.475 903.995L499.974 907.921C389.617 973.14 326.286 938.676 323.68 937.149L322.574 936.504L320.304 891.594L323.489 892.945C403.18 927.303 505.759 853.302 506.929 852.67L508.349 851.625L509.717 852.852Z" fill="#FF725E"/>
<path d="M287.63 897.996L302.231 1031.43L297.829 1031.77L283.713 902.427C267.472 901.608 251.32 898.798 235.623 894.062C191.983 880.783 151.09 859.133 115.296 830.356C19.7599 755.608 -29.6055 681.702 -43.4927 639.937L-103.998 657.612C-92.1578 682.803 20.7878 911.603 236.876 960.568L236.035 964.86C6.15534 912.738 -107.938 659.586 -109.061 657.012L-110.065 654.775L-40.5027 634.325L-39.8472 636.48C-27.1895 677.199 21.763 751.431 118.09 826.773C209.706 898.64 284.832 898.094 285.545 898.038L287.63 897.996Z" fill="#FF725E"/>
<path d="M824.556 -166.851L827.891 -163.857L577.082 105.31L575.447 103.842C479.182 18.6352 227.377 30.2533 96.4306 99.1491C-86.2802 195.308 -133.504 335.134 -140.884 435.544C-145.456 501.285 -136.193 567.767 -113.683 630.758L-51.3049 610.124C-61.6832 588.74 -136.35 422.443 -21.5942 292.542L-73.8809 244.903L-70.997 241.691L-15.4371 292.326L-16.879 293.932C-139.244 430.229 -47.2327 608.675 -46.3221 610.478L-45.0978 612.738L-116.041 636.068L-116.942 634.388C-140.38 570.291 -150.063 502.473 -145.351 435.421C-137.895 333.919 -90.2861 192.524 94.2273 95.4305C167.973 56.6327 267.141 36.0168 365.932 39.371C457.521 42.2929 535.967 64.685 576.586 99.3535L824.556 -166.851Z" fill="#FF725E"/>
<path d="M853.953 -143.301L899.482 -102.427L897.977 -100.818L638.888 177.101L622.122 196.044L581.03 159.152L821.174 -108.334L824.51 -105.339L587.249 158.935L621.67 189.838L635.582 174.074L893.195 -102.269L851.069 -140.089L853.953 -143.301Z" fill="#FF725E"/>
<path d="M115.805 329.919C118.473 332.315 121.042 334.621 123.276 336.627L120.392 339.839C115.262 334.885 108.252 328.939 101.614 322.98C94.9766 317.021 87.8947 310.953 82.6689 305.972L85.5528 302.759C90.712 307.681 97.7271 313.689 104.365 319.648L115.805 329.919Z" fill="#FF725E"/>
<path d="M609.54 818.959L612.875 821.954L645.867 785.206L642.532 782.211L609.54 818.959Z" fill="#FF725E"/>
<path d="M137.046 723.935L140.382 726.929L168.76 695.321L165.424 692.326L137.046 723.935Z" fill="#FF725E"/>
<path d="M191.543 60.9469L195.523 59.205L171.765 8.77361L167.786 10.5156L191.543 60.9469Z" fill="#FF725E"/>
<path d="M399.686 146.665L404.088 147.095L407.294 94.5612L402.892 94.1319L399.686 146.665Z" fill="#FF725E"/>
</mask>
<g mask="url(#mask0_35_756)">
<rect x="434.173" y="1359.95" width="1340.24" height="1105.13" transform="rotate(-138.083 434.173 1359.95)" fill="#467DCF" fill-opacity="0.4"/>
</g>
</svg>
