<svg xmlns="http://www.w3.org/2000/svg" viewBox="0 0 500 500"><g id="freepik--background-complete--inject-25"><rect x="300.06" y="289.89" width="88.24" height="122.11" style="fill:#ebebeb"></rect><rect x="295.79" y="285.35" width="96.79" height="4.53" style="fill:#dbdbdb"></rect><rect x="392.58" y="285.35" width="30.44" height="4.53" style="fill:#ebebeb"></rect><rect x="388.3" y="289.89" width="29.9" height="122.11" style="fill:#dbdbdb"></rect><path d="M378.82,346.42H309.55V307.25h69.27Zm-69-.25h68.77V307.5H309.8Z" style="fill:#c7c7c7"></path><rect x="334.52" y="318.71" width="13.48" height="7.75" style="fill:#c7c7c7"></rect><path d="M352.11,326H338.38v-6.83h13.73Zm-13.48-.25h13.23v-6.33H338.63Z" style="fill:#c7c7c7"></path><path d="M378.82,395.58H309.55V356.42h69.27Zm-69-.25h68.77V356.67H309.8Z" style="fill:#c7c7c7"></path><rect x="334.52" y="367.87" width="13.48" height="7.75" style="fill:#c7c7c7"></rect><path d="M352.11,375.16H338.38v-6.83h13.73Zm-13.48-.25h13.23v-6.33H338.63Z" style="fill:#c7c7c7"></path><circle cx="429.66" cy="94.31" r="28.15" transform="translate(-10.19 100) rotate(-13.12)" style="fill:#ebebeb"></circle><circle cx="430.95" cy="94.93" r="26.86" transform="translate(59.09 332.53) rotate(-45)" style="fill:#dbdbdb"></circle><circle cx="430.95" cy="94.93" r="25.17" transform="translate(13.72 238.63) rotate(-31.43)" style="fill:#fff"></circle><path d="M455.55,89.59c-11.46,7-30.3,18.34-40.83,24.58a25.25,25.25,0,0,1-6.88-9.25l34.82-32.26A25.17,25.17,0,0,1,455.55,89.59Z" style="fill:#ebebeb;opacity:0.5"></path><path d="M456.1,95.81a24.94,24.94,0,0,1-1.67,8.18l-31.38,14.84a24.08,24.08,0,0,1-4-1.7C428.56,111.65,445.89,101.68,456.1,95.81Z" style="fill:#ebebeb;opacity:0.5"></path><rect x="430.71" y="71.59" width="0.49" height="3.81" style="fill:#c7c7c7"></rect><rect x="419.99" y="74.46" width="0.49" height="3.81" transform="translate(18.11 220.33) rotate(-30)" style="fill:#c7c7c7"></rect><rect x="412.14" y="82.31" width="0.49" height="3.81" transform="translate(133.24 399.23) rotate(-60)" style="fill:#c7c7c7"></rect><rect x="407.61" y="94.69" width="3.81" height="0.49" style="fill:#c7c7c7"></rect><rect x="410.48" y="105.41" width="3.81" height="0.49" transform="translate(2.44 220.4) rotate(-30.01)" style="fill:#c7c7c7"></rect><rect x="418.33" y="113.25" width="3.81" height="0.49" transform="matrix(0.5, -0.87, 0.87, 0.5, 112.03, 420.88)" style="fill:#c7c7c7"></rect><rect x="430.71" y="114.46" width="0.49" height="3.81" style="fill:#c7c7c7"></rect><rect x="441.42" y="111.59" width="0.49" height="3.81" transform="translate(2.42 236.04) rotate(-30)" style="fill:#c7c7c7"></rect><rect x="449.27" y="103.74" width="0.49" height="3.81" transform="translate(133.23 442.08) rotate(-59.99)" style="fill:#c7c7c7"></rect><rect x="450.47" y="94.69" width="3.81" height="0.49" style="fill:#c7c7c7"></rect><rect x="447.6" y="83.97" width="3.81" height="0.49" transform="translate(18.15 236.14) rotate(-30.01)" style="fill:#c7c7c7"></rect><rect x="439.76" y="76.13" width="3.81" height="0.49" transform="translate(154.86 420.82) rotate(-60.03)" style="fill:#c7c7c7"></rect><polygon points="431.31 73.32 432.14 96.63 429.75 96.6 430.67 73.31 431.31 73.32" style="fill:#c7c7c7"></polygon><polygon points="445.83 86.8 430.15 96.81 429.01 94.72 445.52 86.23 445.83 86.8" style="fill:#a6a6a6"></polygon><path d="M431.76,94.93a.82.82,0,0,1-.81.82.82.82,0,0,1-.82-.82.82.82,0,0,1,.82-.81A.81.81,0,0,1,431.76,94.93Z" style="fill:#c7c7c7"></path><rect x="142.91" y="273.45" width="6.81" height="48.43" style="fill:#ebebeb"></rect><rect x="154.61" y="285.17" width="6.81" height="36.7" style="fill:#ebebeb"></rect><rect x="166.31" y="303.52" width="6.81" height="18.35" style="fill:#ebebeb"></rect><rect x="178" y="293.04" width="6.81" height="28.83" style="fill:#ebebeb"></rect><rect x="189.7" y="282.03" width="6.81" height="39.84" style="fill:#ebebeb"></rect><rect x="201.4" y="275.56" width="6.81" height="46.32" style="fill:#ebebeb"></rect><path d="M139,267.29l.08,13.64,0,13.65,0,27.29-.17-.17q9.38,0,18.76,0l18.76,0,18.77,0,18.76.1-18.76.1-18.77,0-18.76,0q-9.37,0-18.76,0h-.17v-.17l0-27.29,0-13.65Z" style="fill:#ebebeb"></path><path d="M137.47,270a6,6,0,0,1,3,0,5.72,5.72,0,0,1-3,0Z" style="fill:#ebebeb"></path><path d="M137.47,274.17a6,6,0,0,1,3,0,5.16,5.16,0,0,1-1.5.2A5.53,5.53,0,0,1,137.47,274.17Z" style="fill:#ebebeb"></path><path d="M137.47,278.32a6,6,0,0,1,3,0,6,6,0,0,1-3,0Z" style="fill:#ebebeb"></path><path d="M137.47,282.47a6,6,0,0,1,3,0,6,6,0,0,1-3,0Z" style="fill:#ebebeb"></path><path d="M137.47,286.62a5.73,5.73,0,0,1,3,0,5.15,5.15,0,0,1-1.5.19A5.51,5.51,0,0,1,137.47,286.62Z" style="fill:#ebebeb"></path><path d="M137.47,290.77a5.73,5.73,0,0,1,3,0,6,6,0,0,1-3,0Z" style="fill:#ebebeb"></path><path d="M137.47,294.91a6,6,0,0,1,3,0,5.73,5.73,0,0,1-3,0Z" style="fill:#ebebeb"></path><path d="M137.47,299.06a6,6,0,0,1,3,0,5.16,5.16,0,0,1-1.5.2A5.53,5.53,0,0,1,137.47,299.06Z" style="fill:#ebebeb"></path><path d="M137.47,303.21a6,6,0,0,1,3,0,6,6,0,0,1-3,0Z" style="fill:#ebebeb"></path><path d="M137.47,307.36a6,6,0,0,1,3,0,6,6,0,0,1-3,0Z" style="fill:#ebebeb"></path><path d="M137.47,311.51a5.53,5.53,0,0,1,1.5-.2,5.16,5.16,0,0,1,1.5.2,6,6,0,0,1-3,0Z" style="fill:#ebebeb"></path><path d="M137.47,315.66a5.73,5.73,0,0,1,3,0,6,6,0,0,1-3,0Z" style="fill:#ebebeb"></path><path d="M100.09,107.31a2.15,2.15,0,0,1,0-2.25l.33-.58.3-.59a2.14,2.14,0,0,1,1.86-1.26l2.77-.08-.28-9-2.77.08a2.15,2.15,0,0,1-1.95-1.13c-.21-.39-.45-.77-.7-1.14a2.16,2.16,0,0,1-.15-2.24l1.31-2.43-8-4.27-1.31,2.43A2.13,2.13,0,0,1,89.63,86a12.18,12.18,0,0,0-1.35,0,2.15,2.15,0,0,1-2-1L84.8,82.65l-7.66,4.76,1.46,2.36a2.15,2.15,0,0,1,0,2.24,6.65,6.65,0,0,0-.33.58c-.11.2-.21.39-.3.59a2.14,2.14,0,0,1-1.87,1.26l-2.77.08.28,9,2.76-.09a2.17,2.17,0,0,1,2,1.13,10.45,10.45,0,0,0,.71,1.15,2.15,2.15,0,0,1,.14,2.24l-1.3,2.43,8,4.27,1.31-2.43a2.11,2.11,0,0,1,1.94-1.12,12.18,12.18,0,0,0,1.35-.05,2.17,2.17,0,0,1,2,1l1.45,2.35,7.67-4.76Zm-14.24-2.26a7.39,7.39,0,1,1,10-3A7.4,7.4,0,0,1,85.85,105.05Z" style="fill:#ebebeb"></path><path d="M72.85,69.09a1.48,1.48,0,0,1-.74-1.39c0-.16,0-.31,0-.47s0-.31,0-.47a1.51,1.51,0,0,1,.73-1.39l1.68-1-3.15-5.47-1.68,1a1.52,1.52,0,0,1-1.58-.06,8.13,8.13,0,0,0-.81-.47A1.5,1.5,0,0,1,66.47,58V56.1H60.14V58a1.5,1.5,0,0,1-.83,1.33,8.13,8.13,0,0,0-.81.47,1.52,1.52,0,0,1-1.58.06l-1.68-1L52.08,64.4l1.69,1a1.49,1.49,0,0,1,.73,1.39c0,.15,0,.31,0,.46s0,.31,0,.47a1.49,1.49,0,0,1-.73,1.39l-1.69,1,3.16,5.48,1.68-1a1.48,1.48,0,0,1,1.57.05c.27.17.54.33.82.47a1.5,1.5,0,0,1,.83,1.34v1.93h6.33V76.43a1.5,1.5,0,0,1,.83-1.34c.28-.14.55-.3.82-.47a1.48,1.48,0,0,1,1.57-.05l1.68,1,3.15-5.48Zm-9.54,3.32a5.18,5.18,0,1,1,5.17-5.18A5.18,5.18,0,0,1,63.31,72.41Z" style="fill:#ebebeb"></path><path d="M457.28,189.81a1.53,1.53,0,0,1-.74-1.4c0-.15,0-.31,0-.46s0-.32,0-.47a1.48,1.48,0,0,1,.74-1.39l1.68-1-3.16-5.48-1.68,1a1.5,1.5,0,0,1-1.58-.05,8.13,8.13,0,0,0-.81-.47,1.5,1.5,0,0,1-.83-1.34v-1.93h-6.32v1.93a1.52,1.52,0,0,1-.83,1.34,8.28,8.28,0,0,0-.82.47,1.48,1.48,0,0,1-1.57.05l-1.68-1-3.16,5.48,1.68,1a1.54,1.54,0,0,1,.74,1.39c0,.16,0,.31,0,.47s0,.31,0,.46a1.55,1.55,0,0,1-.74,1.4l-1.68,1,3.16,5.47,1.67-1a1.5,1.5,0,0,1,1.58.06c.26.17.53.32.81.47a1.51,1.51,0,0,1,.84,1.33v1.94h6.32v-1.94a1.5,1.5,0,0,1,.83-1.33c.28-.15.55-.3.82-.47a1.48,1.48,0,0,1,1.57-.06l1.68,1,3.16-5.47Zm-9.54,3.32a5.18,5.18,0,1,1,5.17-5.18A5.18,5.18,0,0,1,447.74,193.13Z" style="fill:#ebebeb"></path></g><g id="freepik--Shadow--inject-25"><ellipse cx="250" cy="447.18" rx="203" ry="23.07" style="fill:#ebebeb"></ellipse></g><g id="freepik--Floor--inject-25"><polygon points="36.47 412.48 89.85 412.24 143.23 412.15 250 411.98 356.77 412.15 410.15 412.23 463.53 412.48 410.15 412.72 356.77 412.81 250 412.98 143.23 412.81 89.85 412.72 36.47 412.48" style="fill:#263238"></polygon></g><g id="freepik--Board--inject-25"><polygon points="178.3 435.72 171.59 435.72 218.59 247.41 235.3 247.41 178.3 435.72" style="fill:#455a64"></polygon><polygon points="235.3 247.42 226.87 275.26 211.64 275.26 218.58 247.44 218.59 247.42 235.3 247.42" style="fill:#263238"></polygon><polygon points="243.35 425.72 236.65 425.72 241.65 247.41 258.35 247.41 243.35 425.72" style="fill:#455a64"></polygon><polygon points="258.35 247.42 256.01 275.26 240.87 275.26 241.65 247.44 241.65 247.42 258.35 247.42" style="fill:#263238"></polygon><polygon points="308.7 435.72 315.41 435.72 278.41 247.41 261.7 247.41 308.7 435.72" style="fill:#455a64"></polygon><polygon points="283.88 275.26 268.65 275.26 261.7 247.42 278.41 247.42 278.42 247.44 283.88 275.26" style="fill:#263238"></polygon><rect x="197.43" y="355.05" width="97.52" height="3.68" style="fill:#455a64"></rect><rect x="117.17" y="63.05" width="265.65" height="196.02" style="fill:#ebebeb"></rect><rect x="107.45" y="55.24" width="285.11" height="14.53" style="fill:#37474f"></rect><rect x="125.79" y="79.18" width="28.77" height="34.09" style="fill:#fff"></rect><path d="M141.21,81.5a1,1,0,0,1-2.07,0,1,1,0,1,1,2.07,0Z" style="fill:#455a64"></path><path d="M131.27,86c2.9-.23,5.81-.24,8.72-.27s5.82,0,8.73.27c-2.91.22-5.82.24-8.73.27S134.17,86.23,131.27,86Z" style="fill:#ebebeb"></path><path d="M131.27,88.7a41.74,41.74,0,0,1,9.48,0,41.74,41.74,0,0,1-9.48,0Z" style="fill:#ebebeb"></path><path d="M131.27,91.39c2-.21,4-.26,6.06-.27s4,.06,6.06.27a55.85,55.85,0,0,1-6.06.27A58.5,58.5,0,0,1,131.27,91.39Z" style="fill:#ebebeb"></path><path d="M131.27,94.09c2.52-.21,5-.26,7.58-.27s5.06.06,7.58.27c-2.52.21-5.05.26-7.58.27S133.79,94.3,131.27,94.09Z" style="fill:#ebebeb"></path><path d="M131.27,96.78c2.19-.21,4.39-.26,6.58-.27s4.4.06,6.59.27c-2.19.21-4.39.26-6.59.27S133.46,97,131.27,96.78Z" style="fill:#ebebeb"></path><path d="M131.27,99.48c2.81-.23,5.62-.24,8.43-.27s5.62,0,8.43.27c-2.81.22-5.62.24-8.43.27S134.08,99.7,131.27,99.48Z" style="fill:#ebebeb"></path><path d="M131.27,102.17a55,55,0,0,1,10.89,0,55,55,0,0,1-10.89,0Z" style="fill:#ebebeb"></path><path d="M131.27,104.86c2.9-.22,5.81-.23,8.72-.27s5.82,0,8.73.27c-2.91.23-5.82.24-8.73.28S134.17,105.09,131.27,104.86Z" style="fill:#ebebeb"></path><path d="M131.27,107.56c2.9-.22,5.81-.24,8.72-.27s5.82,0,8.73.27c-2.91.22-5.82.24-8.73.27S134.17,107.78,131.27,107.56Z" style="fill:#ebebeb"></path><rect x="347.29" y="167.61" width="26.79" height="31.74" style="fill:#fff"></rect><path d="M361.5,171.89a.82.82,0,0,1-.82.81.81.81,0,0,1,0-1.62A.82.82,0,0,1,361.5,171.89Z" style="fill:#455a64"></path><path d="M351,175.53a20.16,20.16,0,0,1,5.94,0,21.11,21.11,0,0,1-5.94,0Z" style="fill:#ebebeb"></path><path d="M351,177.92a35.31,35.31,0,0,1,7.69,0,35.31,35.31,0,0,1-7.69,0Z" style="fill:#ebebeb"></path><path d="M351,180.31a30.28,30.28,0,0,1,7.12,0,28.91,28.91,0,0,1-7.12,0Z" style="fill:#ebebeb"></path><path d="M351,182.71a28.91,28.91,0,0,1,7.12,0,30.28,30.28,0,0,1-7.12,0Z" style="fill:#ebebeb"></path><path d="M351,185.1a21.39,21.39,0,0,1,3.09-.21,20.27,20.27,0,0,1,3.1.21,19.08,19.08,0,0,1-3.1.21A18.88,18.88,0,0,1,351,185.1Z" style="fill:#ebebeb"></path><path d="M351,187.49a37.44,37.44,0,0,1,7.92,0,35.75,35.75,0,0,1-7.92,0Z" style="fill:#ebebeb"></path><path d="M351,189.89a24.41,24.41,0,0,1,6.54,0,25.56,25.56,0,0,1-6.54,0Z" style="fill:#ebebeb"></path><path d="M351,192.28a37.4,37.4,0,0,1,4.1-.21,35.3,35.3,0,0,1,4.1.21,40.13,40.13,0,0,1-8.2,0Z" style="fill:#ebebeb"></path><path d="M351,194.67a40.13,40.13,0,0,1,8.2,0,38.31,38.31,0,0,1-8.2,0Z" style="fill:#ebebeb"></path><path d="M362.74,175.53a34.59,34.59,0,0,1,7.79,0,36.23,36.23,0,0,1-7.79,0Z" style="fill:#ebebeb"></path><path d="M362.74,177.92a15.71,15.71,0,0,1,5.12,0,15.71,15.71,0,0,1-5.12,0Z" style="fill:#ebebeb"></path><path d="M362.74,180.31a32.09,32.09,0,0,1,7.33,0,30.64,30.64,0,0,1-7.33,0Z" style="fill:#ebebeb"></path><path d="M362.74,182.71a29,29,0,0,1,7.13,0,30.37,30.37,0,0,1-7.13,0Z" style="fill:#ebebeb"></path><path d="M362.74,185.1a33.92,33.92,0,0,1,3.89-.21,31.86,31.86,0,0,1,3.9.21,36.23,36.23,0,0,1-7.79,0Z" style="fill:#ebebeb"></path><path d="M362.74,187.49a22.91,22.91,0,0,1,6.19,0,21.88,21.88,0,0,1-6.19,0Z" style="fill:#ebebeb"></path><path d="M362.74,189.89a30.64,30.64,0,0,1,7.33,0,32.09,32.09,0,0,1-7.33,0Z" style="fill:#ebebeb"></path><path d="M362.74,192.28a18.06,18.06,0,0,1,2.83-.21,17,17,0,0,1,2.84.21,19.24,19.24,0,0,1-5.67,0Z" style="fill:#ebebeb"></path><path d="M362.74,194.67a17.72,17.72,0,0,1,5.44,0,16.92,16.92,0,0,1-5.44,0Z" style="fill:#ebebeb"></path><rect x="133.5" y="111.67" width="17.31" height="17.31" style="fill:#BC87D6"></rect><path d="M143.19,113.42a1,1,0,1,1-1-1A1,1,0,0,1,143.19,113.42Z" style="fill:#455a64"></path><polygon points="157.23 178.76 203.45 178.65 249.66 178.76 203.45 178.88 157.23 178.76" style="fill:#c7c7c7"></polygon><polygon points="157.23 182.53 203.45 182.42 249.66 182.53 203.45 182.65 157.23 182.53" style="fill:#c7c7c7"></polygon><polygon points="157.23 186.3 203.45 186.19 249.66 186.3 203.45 186.42 157.23 186.3" style="fill:#c7c7c7"></polygon><polygon points="157.23 190.07 203.45 189.96 249.66 190.07 203.45 190.19 157.23 190.07" style="fill:#c7c7c7"></polygon><polygon points="157.23 193.84 203.45 193.72 249.66 193.84 203.45 193.96 157.23 193.84" style="fill:#c7c7c7"></polygon><polygon points="157.23 197.61 203.45 197.49 249.66 197.61 203.45 197.73 157.23 197.61" style="fill:#c7c7c7"></polygon><polygon points="157.23 201.38 203.45 201.26 249.66 201.38 203.45 201.5 157.23 201.38" style="fill:#c7c7c7"></polygon><polygon points="157.23 205.15 203.45 205.03 249.66 205.15 203.45 205.27 157.23 205.15" style="fill:#c7c7c7"></polygon><polygon points="157.23 208.92 203.45 208.8 249.66 208.92 203.45 209.04 157.23 208.92" style="fill:#c7c7c7"></polygon><polygon points="157.23 212.69 203.45 212.57 249.66 212.69 203.45 212.81 157.23 212.69" style="fill:#c7c7c7"></polygon><polygon points="157.23 216.46 203.45 216.34 249.66 216.46 203.45 216.57 157.23 216.46" style="fill:#c7c7c7"></polygon><polygon points="157.23 220.23 203.45 220.11 249.66 220.23 203.45 220.34 157.23 220.23" style="fill:#c7c7c7"></polygon><polygon points="157.23 224 203.45 223.88 249.66 224 203.45 224.11 157.23 224" style="fill:#c7c7c7"></polygon><polygon points="157.23 227.77 203.45 227.65 249.66 227.77 203.45 227.88 157.23 227.77" style="fill:#c7c7c7"></polygon><polygon points="157.23 231.53 203.45 231.42 249.66 231.53 203.45 231.65 157.23 231.53" style="fill:#c7c7c7"></polygon><rect x="167" y="220.11" width="7.01" height="15.82" style="fill:#BC87D6"></rect><rect x="180.01" y="211.67" width="7.01" height="24.26" style="fill:#BC87D6"></rect><rect x="193.01" y="202.23" width="7.01" height="33.7" style="fill:#BC87D6"></rect><rect x="206.01" y="198.17" width="7.01" height="37.76" style="fill:#BC87D6"></rect><rect x="219.02" y="190.94" width="7.01" height="44.99" style="fill:#BC87D6"></rect><rect x="232.02" y="183.79" width="7.01" height="52.14" style="fill:#BC87D6"></rect><path d="M159.73,176.12l.19,14.95.12,15c.09,10,.11,19.94.13,29.91l-.43-.43,22.48,0,22.48.05,22.48.14,22.48.26-22.48.26-22.48.14-22.48,0-22.48,0h-.44v-.43c0-10,0-19.94.13-29.91l.12-15Z" style="fill:#c7c7c7"></path><rect x="167" y="239.09" width="7.01" height="0.63" style="fill:#c7c7c7"></rect><rect x="180.01" y="239.09" width="7.01" height="0.63" style="fill:#c7c7c7"></rect><rect x="193.01" y="239.09" width="7.01" height="0.63" style="fill:#c7c7c7"></rect><rect x="206.01" y="239.09" width="7.01" height="0.63" style="fill:#c7c7c7"></rect><rect x="219.02" y="239.09" width="7.01" height="0.63" style="fill:#c7c7c7"></rect><rect x="232.02" y="239.09" width="7.01" height="0.63" style="fill:#c7c7c7"></rect><path d="M167.79,222.11a85.44,85.44,0,0,0,10.24-.78,101.56,101.56,0,0,0,10.09-1.82,87.29,87.29,0,0,0,19.26-6.78,69.19,69.19,0,0,0,16.83-11.46l.94-.86.9-.91,1.79-1.83c1.1-1.3,2.29-2.53,3.29-3.91a71.92,71.92,0,0,0,5.74-8.5l.06,0a61.41,61.41,0,0,1-12.18,16.55,59.94,59.94,0,0,1-8,6.54,68.08,68.08,0,0,1-8.92,5.24,83.36,83.36,0,0,1-19.53,6.63A84.6,84.6,0,0,1,167.79,222.11Z" style="fill:#263238"></path><polygon points="238.86 190.13 237.89 190.38 236.69 185.59 232.01 187.13 231.7 186.18 237.4 184.31 238.86 190.13" style="fill:#263238"></polygon><path d="M208,142.69a42.91,42.91,0,0,0-10.41,1.37,38.41,38.41,0,0,0-9.72,3.87,24.81,24.81,0,0,0-7.78,6.8,20.26,20.26,0,0,0-3.75,9.55,17.56,17.56,0,0,0,1.47,10,19.31,19.31,0,0,0,6.82,7.56,32.11,32.11,0,0,0,9.46,4.18,45.21,45.21,0,0,0,10.28,1.53c6.93.22,14-.81,20.25-3.92a22.6,22.6,0,0,0,8-6.44,16.51,16.51,0,0,0,3.29-9.57A16.68,16.68,0,0,0,232.9,158a25.79,25.79,0,0,0-7.44-7.2,33.53,33.53,0,0,0-19.92-5.47,33.73,33.73,0,0,1,20.19,5.05,26.35,26.35,0,0,1,7.69,7.26,17.31,17.31,0,0,1,3.2,10.09,16.94,16.94,0,0,1-3.36,10.06,23.42,23.42,0,0,1-8.25,6.74c-6.39,3.23-13.63,4.3-20.69,4.11a46.16,46.16,0,0,1-10.51-1.6,33.28,33.28,0,0,1-9.71-4.36,20.27,20.27,0,0,1-7.09-7.94,18,18,0,0,1-1.43-10.51,21,21,0,0,1,4-9.82,25.14,25.14,0,0,1,8.05-6.85,38.53,38.53,0,0,1,9.89-3.68A43.42,43.42,0,0,1,208,142.69Z" style="fill:#455a64"></path><rect x="206.43" y="82.97" width="87.14" height="2.27" style="fill:#c7c7c7"></rect><rect x="221.33" y="87.71" width="57.34" height="2.27" style="fill:#c7c7c7"></rect><rect x="179.87" y="161.44" width="47.14" height="2.27" style="fill:#c7c7c7"></rect><rect x="194.77" y="166.18" width="17.34" height="2.27" style="fill:#c7c7c7"></rect><polygon points="270.06 152.95 280.67 152.85 291.27 152.81 312.49 152.74 333.7 152.81 344.31 152.85 354.92 152.95 344.31 153.05 333.7 153.09 312.49 153.16 291.27 153.09 280.67 153.05 270.06 152.95" style="fill:#c7c7c7"></polygon><polygon points="270.06 147.08 280.67 146.98 291.27 146.94 312.49 146.87 333.7 146.94 344.31 146.98 354.92 147.08 344.31 147.19 333.7 147.22 312.49 147.29 291.27 147.22 280.67 147.19 270.06 147.08" style="fill:#c7c7c7"></polygon><polygon points="270.06 141.22 280.67 141.11 291.27 141.07 312.49 141 333.7 141.07 344.31 141.11 354.92 141.22 344.31 141.32 333.7 141.35 312.49 141.43 291.27 141.35 280.67 141.32 270.06 141.22" style="fill:#c7c7c7"></polygon><polygon points="270.06 135.35 280.67 135.25 291.27 135.21 312.49 135.14 333.7 135.21 344.31 135.24 354.92 135.35 344.31 135.45 333.7 135.49 312.49 135.56 291.27 135.49 280.67 135.45 270.06 135.35" style="fill:#c7c7c7"></polygon><polygon points="270.06 129.48 280.67 129.38 291.27 129.34 312.49 129.27 333.7 129.34 344.31 129.38 354.92 129.48 344.31 129.58 333.7 129.62 312.49 129.69 291.27 129.62 280.67 129.58 270.06 129.48" style="fill:#c7c7c7"></polygon><polygon points="270.06 123.61 280.67 123.51 291.27 123.47 312.49 123.4 333.7 123.47 344.31 123.51 354.92 123.61 344.31 123.72 333.7 123.75 312.49 123.82 291.27 123.75 280.67 123.72 270.06 123.61" style="fill:#c7c7c7"></polygon><polygon points="270.06 117.74 280.67 117.64 291.27 117.6 312.49 117.53 333.7 117.6 344.31 117.64 354.92 117.74 344.31 117.85 333.7 117.89 312.49 117.95 291.27 117.88 280.67 117.85 270.06 117.74" style="fill:#c7c7c7"></polygon><polygon points="270.06 111.88 280.67 111.77 291.27 111.74 312.49 111.67 333.7 111.74 344.31 111.77 354.92 111.88 344.31 111.98 333.7 112.02 312.49 112.09 291.27 112.02 280.67 111.98 270.06 111.88" style="fill:#c7c7c7"></polygon><polygon points="270.06 106.01 280.67 105.91 291.27 105.87 312.49 105.8 333.7 105.87 344.31 105.91 354.92 106.01 344.31 106.11 333.7 106.15 312.49 106.22 291.27 106.15 280.67 106.11 270.06 106.01" style="fill:#c7c7c7"></polygon><polygon points="273.17 150.72 272.99 149.9 283.95 147.4 294.54 137.02 298.77 139.84 307.18 131.45 311.8 134.22 314.82 131.69 323.18 140.51 334.18 127.28 343.36 137.05 353.86 132.25 354.21 133.01 343.16 138.07 334.22 128.56 323.22 141.78 314.75 132.85 311.88 135.25 307.31 132.51 298.88 140.93 294.64 138.1 284.38 148.17 273.17 150.72" style="fill:#455a64"></polygon><path d="M285.29,147.69a1.11,1.11,0,1,1-1.11-1.11A1.11,1.11,0,0,1,285.29,147.69Z" style="fill:#455a64"></path><circle cx="294.48" cy="137.65" r="1.11" style="fill:#455a64"></circle><path d="M308.44,132.07a1.11,1.11,0,1,1-1.11-1.12A1.11,1.11,0,0,1,308.44,132.07Z" style="fill:#455a64"></path><path d="M313,134.78a1.11,1.11,0,1,1-1.11-1.11A1.11,1.11,0,0,1,313,134.78Z" style="fill:#455a64"></path><path d="M315.91,132.35a1.11,1.11,0,1,1-1.11-1.11A1.11,1.11,0,0,1,315.91,132.35Z" style="fill:#455a64"></path><path d="M335.21,127.92a1.11,1.11,0,1,1-1.11-1.11A1.11,1.11,0,0,1,335.21,127.92Z" style="fill:#455a64"></path><circle cx="343.42" cy="137.4" r="1.11" style="fill:#455a64"></circle><path d="M355.15,132.78a1.11,1.11,0,1,1-1.11-1.11A1.12,1.12,0,0,1,355.15,132.78Z" style="fill:#455a64"></path><path d="M324.28,141.05a1.11,1.11,0,1,1-1.11-1.11A1.11,1.11,0,0,1,324.28,141.05Z" style="fill:#455a64"></path><polygon points="273.17 150.72 272.99 149.71 284.58 137.03 289.33 139.54 301.89 126.77 305.36 129.62 311.28 124.52 322.56 132.64 325.07 129.78 331.47 135.68 340.84 127.36 346.88 132.53 353.93 130.63 354.15 131.44 346.67 133.46 340.85 128.48 331.46 136.82 325.14 130.99 322.69 133.78 311.32 125.6 305.38 130.72 301.95 127.91 289.49 140.57 284.76 138.09 273.17 150.72" style="fill:#263238"></polygon><path d="M285.69,137.77a1.11,1.11,0,1,1-1.11-1.11A1.11,1.11,0,0,1,285.69,137.77Z" style="fill:#263238"></path><path d="M290.46,140a1.11,1.11,0,1,1-1.11-1.11A1.12,1.12,0,0,1,290.46,140Z" style="fill:#263238"></path><path d="M302.88,127.42a1.11,1.11,0,1,1-1.11-1.11A1.11,1.11,0,0,1,302.88,127.42Z" style="fill:#263238"></path><path d="M306.62,130.13A1.12,1.12,0,1,1,305.5,129,1.12,1.12,0,0,1,306.62,130.13Z" style="fill:#263238"></path><path d="M312.42,125.06a1.11,1.11,0,1,1-1.11-1.11A1.11,1.11,0,0,1,312.42,125.06Z" style="fill:#263238"></path><path d="M323.67,133.18a1.12,1.12,0,1,1-1.12-1.11A1.12,1.12,0,0,1,323.67,133.18Z" style="fill:#263238"></path><path d="M326.08,130.42a1.11,1.11,0,1,1-1.11-1.11A1.11,1.11,0,0,1,326.08,130.42Z" style="fill:#263238"></path><path d="M332.44,136.29a1.11,1.11,0,1,1-1.11-1.11A1.11,1.11,0,0,1,332.44,136.29Z" style="fill:#263238"></path><path d="M342,128.2a1.11,1.11,0,1,1-1.11-1.11A1.11,1.11,0,0,1,342,128.2Z" style="fill:#263238"></path><path d="M347.94,133a1.11,1.11,0,1,1-1.11-1.11A1.12,1.12,0,0,1,347.94,133Z" style="fill:#263238"></path><circle cx="354.04" cy="130.95" r="1.11" style="fill:#263238"></circle><polygon points="273.07 150.63 272.99 149.71 287.45 141.4 295.11 144.85 299.31 143.44 303.7 146.15 312.8 139.46 316.46 142.42 320.3 141.27 326.6 144.83 336.55 140.08 342.83 144.78 353.79 136.9 354.29 137.58 342.82 145.83 336.45 141.06 326.56 145.78 320.2 142.18 316.28 143.36 312.78 140.52 303.74 147.16 299.21 144.37 295.07 145.76 287.49 142.35 273.07 150.63" style="fill:#BC87D6"></polygon><path d="M288.58,141.87a1.11,1.11,0,1,1-1.11-1.11A1.11,1.11,0,0,1,288.58,141.87Z" style="fill:#BC87D6"></path><path d="M296.2,145.27a1.11,1.11,0,1,1-1.11-1.12A1.11,1.11,0,0,1,296.2,145.27Z" style="fill:#BC87D6"></path><path d="M300.38,144.1a1.11,1.11,0,1,1-1.11-1.11A1.11,1.11,0,0,1,300.38,144.1Z" style="fill:#BC87D6"></path><path d="M304.89,146.58a1.11,1.11,0,0,1-2.22,0,1.11,1.11,0,1,1,2.22,0Z" style="fill:#BC87D6"></path><path d="M317.43,142.73a1.11,1.11,0,1,1-1.11-1.11A1.11,1.11,0,0,1,317.43,142.73Z" style="fill:#BC87D6"></path><path d="M327.64,145.21a1.11,1.11,0,1,1-1.11-1.11A1.11,1.11,0,0,1,327.64,145.21Z" style="fill:#BC87D6"></path><circle cx="342.99" cy="145.21" r="1.11" style="fill:#BC87D6"></circle><path d="M313.83,139.94a1.11,1.11,0,0,1-2.22,0,1.11,1.11,0,1,1,2.22,0Z" style="fill:#BC87D6"></path><path d="M321.44,141.87a1.11,1.11,0,1,1-1.11-1.11A1.12,1.12,0,0,1,321.44,141.87Z" style="fill:#BC87D6"></path><path d="M337.52,140.51a1.12,1.12,0,1,1-1.11-1.12A1.11,1.11,0,0,1,337.52,140.51Z" style="fill:#BC87D6"></path><path d="M355.15,137.24a1.11,1.11,0,1,1-1.11-1.11A1.11,1.11,0,0,1,355.15,137.24Z" style="fill:#BC87D6"></path><polygon points="273.03 103.26 273.12 117.11 273.16 130.95 273.21 158.65 273.03 158.47 293.23 158.45 313.42 158.5 333.61 158.54 353.81 158.65 333.61 158.76 313.42 158.8 293.23 158.85 273.03 158.83 272.85 158.83 272.85 158.65 272.9 130.95 272.95 117.11 273.03 103.26" style="fill:#c7c7c7"></polygon><circle cx="292.92" cy="204.27" r="22.86" transform="translate(28.86 444.68) rotate(-77.21)" style="fill:#455a64"></circle><path d="M292.92,204.27l-8.16,21.35a22.86,22.86,0,1,1,31-21.35Z" style="fill:#dbdbdb"></path><path d="M292.92,204.27l18.36,13.61a22.85,22.85,0,1,1,4.5-13.61Z" style="fill:#dbdbdb"></path><path d="M292.92,204.27l-20.29,10.52a22.86,22.86,0,1,1,43.15-10.52Z" style="fill:#BC87D6"></path><polygon points="302.2 194.28 301.85 193.93 312.81 182.98 326.73 182.98 326.73 183.47 313.01 183.47 302.2 194.28" style="fill:#c7c7c7"></polygon><rect x="305.41" y="207.77" width="21.32" height="0.49" style="fill:#c7c7c7"></rect><polygon points="326.73 231.85 312.25 231.85 312.18 231.76 301.84 219.09 302.22 218.78 312.49 231.36 326.73 231.36 326.73 231.85" style="fill:#c7c7c7"></polygon><path d="M327.79,183.22a1.06,1.06,0,1,1-1.06-1.06A1.06,1.06,0,0,1,327.79,183.22Z" style="fill:#c7c7c7"></path><path d="M327.79,208a1.06,1.06,0,1,1-1.06-1.06A1.07,1.07,0,0,1,327.79,208Z" style="fill:#c7c7c7"></path><path d="M327.79,231.6a1.06,1.06,0,1,1-1.06-1A1.06,1.06,0,0,1,327.79,231.6Z" style="fill:#c7c7c7"></path><rect x="330.74" y="182.98" width="9.52" height="0.49" style="fill:#c7c7c7"></rect><rect x="330.74" y="184.55" width="13.3" height="0.49" style="fill:#c7c7c7"></rect><rect x="330.74" y="186.13" width="11.44" height="0.49" style="fill:#c7c7c7"></rect><rect x="330.74" y="187.7" width="14.55" height="0.49" style="fill:#c7c7c7"></rect><rect x="330.74" y="189.28" width="12.61" height="0.49" style="fill:#c7c7c7"></rect><rect x="330.74" y="190.85" width="10.8" height="0.49" style="fill:#c7c7c7"></rect><rect x="330.74" y="207.77" width="13.14" height="0.49" style="fill:#c7c7c7"></rect><rect x="330.74" y="209.35" width="8.88" height="0.49" style="fill:#c7c7c7"></rect><rect x="330.74" y="210.92" width="12.07" height="0.49" style="fill:#c7c7c7"></rect><rect x="330.74" y="212.5" width="13.14" height="0.49" style="fill:#c7c7c7"></rect><rect x="330.74" y="214.07" width="14.55" height="0.49" style="fill:#c7c7c7"></rect><rect x="330.74" y="215.65" width="10.8" height="0.49" style="fill:#c7c7c7"></rect><rect x="330.74" y="231.36" width="11.01" height="0.49" style="fill:#c7c7c7"></rect><rect x="330.74" y="232.93" width="14.55" height="0.49" style="fill:#c7c7c7"></rect><rect x="330.74" y="234.51" width="9.2" height="0.49" style="fill:#c7c7c7"></rect><rect x="330.74" y="236.08" width="14.55" height="0.49" style="fill:#c7c7c7"></rect><rect x="330.74" y="237.66" width="12.57" height="0.49" style="fill:#c7c7c7"></rect><rect x="330.74" y="239.23" width="7.75" height="0.49" style="fill:#c7c7c7"></rect><rect x="168.55" y="107.43" width="26.23" height="2.25" style="fill:#c7c7c7"></rect><rect x="168.55" y="112.14" width="35.44" height="2.25" style="fill:#c7c7c7"></rect><rect x="168.55" y="116.85" width="18.81" height="2.25" style="fill:#c7c7c7"></rect><rect x="157.23" y="107.43" width="5.47" height="5.47" style="fill:#BC87D6"></rect><rect x="168.55" y="125.64" width="31.18" height="2.25" style="fill:#c7c7c7"></rect><rect x="168.55" y="130.35" width="24.66" height="2.25" style="fill:#c7c7c7"></rect><rect x="168.55" y="135.06" width="35.44" height="2.25" style="fill:#c7c7c7"></rect><rect x="157.23" y="125.64" width="5.47" height="5.47" style="fill:#fff"></rect><path d="M242.17,166.74a25.75,25.75,0,0,1,.61-10.18,26.13,26.13,0,0,1,4.37-9.3l.37-.54.42-.48.86-1,.85-1c.3-.31.64-.58.95-.88.65-.57,1.28-1.15,2-1.7l2.12-1.46,1.07-.71,1.15-.59,2.28-1.17a24.63,24.63,0,0,1,2.39-.93L264,136l0,.12c-1.54.73-3.09,1.4-4.59,2.16l-2.18,1.27-1.09.63-1,.76-2,1.48c-.63.55-1.23,1.14-1.85,1.7-.3.29-.62.55-.91.86l-.82.94-.81,1-.41.48-.36.51a28.87,28.87,0,0,0-4.45,8.91c-.27.8-.42,1.62-.64,2.43s-.3,1.66-.42,2.49A28.47,28.47,0,0,0,242.17,166.74Z" style="fill:#455a64"></path><polygon points="262.37 141.1 261.47 140.66 263.63 136.23 259.06 134.4 259.43 133.47 265 135.7 262.37 141.1" style="fill:#455a64"></polygon><path d="M271.26,164a30.59,30.59,0,0,0-2.51,3.78c-.37.66-.73,1.33-1.08,2s-.65,1.36-.94,2.06a34.36,34.36,0,0,0-2.43,8.63,32,32,0,0,0-.14,9,30.65,30.65,0,0,0,.76,4.45c.33,1.47.84,2.9,1.25,4.37l-.13.05-.86-2.12a14.66,14.66,0,0,1-.79-2.16,31.29,31.29,0,0,1-1-4.48,28.81,28.81,0,0,1,0-9.22,29.38,29.38,0,0,1,2.74-8.79A27.88,27.88,0,0,1,271.26,164Z" style="fill:#455a64"></path><polygon points="261.14 196.6 261.58 195.71 266.01 197.88 267.85 193.31 268.78 193.68 266.53 199.25 261.14 196.6" style="fill:#455a64"></polygon><path d="M159.26,137a33.79,33.79,0,0,0-.44,3.86,35.55,35.55,0,0,0-.06,3.86,32,32,0,0,0,1.18,7.56,22.84,22.84,0,0,0,3.26,6.87c.37.51.71,1,1.12,1.55l1.3,1.41a10.93,10.93,0,0,0,1.39,1.33l1.47,1.28-.09.13a21.6,21.6,0,0,1-5.86-5.22l-.62-.78-.51-.85c-.32-.58-.72-1.12-1-1.73l-.8-1.82c-.25-.62-.42-1.26-.62-1.89a26,26,0,0,1-1-7.83A26.88,26.88,0,0,1,159.26,137Z" style="fill:#455a64"></path><polygon points="163.38 166.1 163.26 165.1 168.16 164.54 167.24 159.69 168.22 159.51 169.34 165.41 163.38 166.1" style="fill:#455a64"></polygon><path d="M241.38,117.12c1.43,7.31-2.69,10-2.85,12.17a34.34,34.34,0,0,0,.21,3.9l-7.36,2.35a34.26,34.26,0,0,0-2.09-3.31c-1.35-1.64-6.3-1.49-9.36-8.27-2-4.46-.87-12.87,6.92-15.36S240.44,112.32,241.38,117.12Z" style="fill:#BC87D6"></path><rect x="230.19" y="123.66" width="0.51" height="12.5" transform="translate(-34.04 124.55) rotate(-28.25)" style="fill:#fff"></rect><rect x="236" y="121.81" width="0.51" height="12.5" transform="translate(-14.04 30.23) rotate(-7.11)" style="fill:#fff"></rect><path d="M232.73,127.05h0a2.33,2.33,0,0,1-2.15-.84.93.93,0,0,1-.52.53h0c-1.13.36-2.3-1.79-2.35-1.89l.22-.12c.31.58,1.28,2,2,1.77h0a.78.78,0,0,0,.41-.48,5.43,5.43,0,0,1-1.21-1.9c-.2-.65-.07-1.11.36-1.25h0a.76.76,0,0,1,.75.16,3.17,3.17,0,0,1,.46,2.66,1.76,1.76,0,0,1-.07.27,2.2,2.2,0,0,0,2,.85h0c.54-.17.85-.81,1-1.58a3.26,3.26,0,0,1-1.31-1.76c-.26-.83-.11-1.45.4-1.62h0c.42-.13.79.2,1,.91a5.68,5.68,0,0,1,.17,2.34,1.1,1.1,0,0,0,.8.05h0c.65-.21.73-2,.71-2.66h.25c0,.27.07,2.61-.89,2.92h0a1.35,1.35,0,0,1-.91-.05A2,2,0,0,1,232.73,127.05Zm.09-5c-.44.14-.4.79-.23,1.3a3.11,3.11,0,0,0,1.1,1.58,5.48,5.48,0,0,0-.18-2.13c-.08-.26-.32-.87-.69-.75Zm-3.2,1c-.37.12-.31.57-.19.93a4.78,4.78,0,0,0,1,1.71l0-.11a3,3,0,0,0-.4-2.42.46.46,0,0,0-.49-.11Z" style="fill:#fff"></path><rect x="230.48" y="134" width="9.53" height="1.86" transform="translate(-29.87 77.84) rotate(-17.69)" style="fill:#263238"></rect><rect x="231.14" y="136.06" width="9.53" height="1.86" transform="translate(-30.47 78.14) rotate(-17.68)" style="fill:#263238"></rect><rect x="231.79" y="138.13" width="9.53" height="1.86" transform="translate(-31.06 78.44) rotate(-17.69)" style="fill:#263238"></rect><path d="M230.37,103a7.74,7.74,0,0,1-.5-2.9,7.53,7.53,0,0,1,.5-2.89,8.63,8.63,0,0,1,0,5.79Z" style="fill:#455a64"></path><path d="M218.9,107.65a8,8,0,0,1-2.4-1.7,7.9,7.9,0,0,1-1.7-2.4,7.61,7.61,0,0,1,2.41,1.7A7.7,7.7,0,0,1,218.9,107.65Z" style="fill:#455a64"></path><path d="M214.09,119.05a8.63,8.63,0,0,1-5.79,0,8.63,8.63,0,0,1,5.79,0Z" style="fill:#455a64"></path><path d="M218.76,130.52a7.9,7.9,0,0,1-1.7,2.4,7.73,7.73,0,0,1-2.4,1.7,7.46,7.46,0,0,1,1.7-2.4A7.57,7.57,0,0,1,218.76,130.52Z" style="fill:#455a64"></path><path d="M246.44,119.26a8.66,8.66,0,0,1,5.8,0,8.66,8.66,0,0,1-5.8,0Z" style="fill:#455a64"></path><path d="M241.77,107.79a8.74,8.74,0,0,1,4.1-4.1,8.51,8.51,0,0,1-4.1,4.1Z" style="fill:#455a64"></path></g><g id="freepik--Plant--inject-25"><path d="M175.69,375.17s-17.31-3.92-26.8-12.67-14.79-24.4-14.79-24.4a147.87,147.87,0,0,1,19.42,5.1,32.72,32.72,0,0,1,5.87,8.3,40.49,40.49,0,0,0,.05-5.94,26.56,26.56,0,0,1,6.16,3.75C173.47,356.19,175.69,375.17,175.69,375.17Z" style="fill:#BC87D6"></path><path d="M144.91,345.71c-2.36-1.63-4.76-3.21-7.11-4.86a.13.13,0,0,1,.14-.23c4.46,2.67,8.86,5.51,13.11,8.5,1.49,1,2.94,2.12,4.38,3.22l-.3-.51c-.52-.87-1.06-1.72-1.61-2.58a37.32,37.32,0,0,0-3.68-4.9c-.05-.06,0-.14.09-.08,1.34,1.55,2.69,3.09,3.92,4.74.59.78,1.13,1.6,1.65,2.43.27.43.53.86.78,1.3.08.15.17.3.26.45,2.23,1.76,4.41,3.59,6.49,5.53q1.93,1.8,3.72,3.72c-.67-2.1-1.25-4.22-2-6.28,0-.07.09-.1.12,0,.75,2.16,1.58,4.34,2.16,6.56q2,2.15,3.79,4.46l-.06-.28c-.2-.81-.4-1.63-.62-2.44-.42-1.56-.88-3.12-1.41-4.65a27.21,27.21,0,0,0-4.65-8.79c-.05-.06,0-.14.08-.08a33.67,33.67,0,0,1,6.63,13.85c.19.73.36,1.47.53,2.22.09.39.19.79.26,1.19.52.71,1,1.42,1.53,2.16a75,75,0,0,1,7.32,14.36A164.23,164.23,0,0,1,186,402c0,.11-.14.15-.17,0-3.39-10.13-6.85-20.4-12.64-29.46q-1.84-2.86-4-5.53a32.69,32.69,0,0,1-8.42-1.68,37.32,37.32,0,0,1-8.44-4.07A52.65,52.65,0,0,1,148,358c-.07,0,0-.15.07-.09a34.51,34.51,0,0,0,7.94,4.8,42.69,42.69,0,0,0,8.73,2.93c1.28.28,2.58.49,3.87.66a73.79,73.79,0,0,0-5.1-5.66c-.59-.58-1.19-1.14-1.79-1.7a41.4,41.4,0,0,0-6.4-3.67c-2.84-1.37-5.63-2.82-8.44-4.25-1.58-.8-3.16-1.63-4.75-2.41-.07,0,0-.13.06-.1,2.84,1.38,5.73,2.66,8.61,4,2.7,1.23,5.43,2.48,8,3.93l.33.2c-2.35-2-4.78-4-7.26-5.86C149.6,349,147.28,347.35,144.91,345.71Z" style="fill:#263238"></path><path d="M145.89,354.64c1.41.61,2.85,1.16,4.24,1.81s2.79,1.46,4.15,2.26a.05.05,0,1,1-.05.09c-1.38-.66-2.78-1.28-4.15-2s-2.78-1.45-4.22-2.08C145.79,354.72,145.82,354.6,145.89,354.64Z" style="fill:#263238"></path><path d="M231.94,287.92a24.79,24.79,0,0,0-5.18,14.38c0,1.55.19,3.71.37,6.26a41.24,41.24,0,0,0-11.3,9.66,20.43,20.43,0,0,1,11.42-2.74,34,34,0,0,1-.66,5.18,19.34,19.34,0,0,0-7.34,1.45,16.31,16.31,0,0,1,6.62,1.32c-3.09,9.81-12.26,19.9-37.6,24.18A53.17,53.17,0,0,1,192.76,312C200.35,297,231.94,287.92,231.94,287.92Z" style="fill:#BC87D6"></path><path d="M179.51,389.63q.66-6.3,1.64-12.55a246,246,0,0,1,5.11-24.79,98.61,98.61,0,0,1,3.65-11.3,17.24,17.24,0,0,1-.09-2c0-.81,0-1.62,0-2.44,0-1.62.09-3.24.23-4.86a57.45,57.45,0,0,1,1.56-9.49c.46-1.81,1-3.58,1.53-5.37a.06.06,0,0,1,.11,0,69.68,69.68,0,0,0-1.87,9.48,86.57,86.57,0,0,0-.85,9.51c0,.87-.05,1.74-.05,2.61,0,.37,0,.75,0,1.12a81.45,81.45,0,0,1,4.27-8.83,106.13,106.13,0,0,1,8.67-13,5.25,5.25,0,0,1,.21-1.42c.11-.57.24-1.13.36-1.7q.39-1.72.87-3.45c.63-2.29,1.46-4.51,2.18-6.78a.06.06,0,0,1,.11,0c-.67,2.25-1.11,4.57-1.63,6.86l-.75,3.39-.36,1.7s0,.08,0,.12c1-1.29,2.07-2.56,3.13-3.82,4.84-5.67,10.15-10.9,15.48-16.1.66-.64,1.33-1.26,2-1.89,0-.05.13,0,.08.09-5.1,5.32-10.13,10.7-14.88,16.34-1.13,1.34-2.25,2.69-3.34,4.06l1.73-1.14c1.47-1,3-1.91,4.5-2.77s3.09-1.7,4.67-2.48,3.36-1.46,4.93-2.37c.06,0,.12.07,0,.1a36.59,36.59,0,0,0-4.62,2.56c-1.54.91-3.08,1.83-4.59,2.8s-3,1.87-4.47,2.83c-1.23.8-2.44,1.68-3.72,2.42a119.34,119.34,0,0,0-8.12,11.81,88.71,88.71,0,0,0-4.19,7.95l.91-.39,2.32-1,4.48-2c2.84-1.23,5.72-2.37,8.51-3.72a38.17,38.17,0,0,0,4.55-2.53c.06,0,.12.06.05.11-5.19,3.58-11,6.1-16.76,8.64l-2.49,1.11c-.69.3-1.37.64-2.08.9a87.51,87.51,0,0,0-4.28,11.74,239.06,239.06,0,0,0-5.52,24.51c-1.45,8.27-2.43,16.6-3.19,25-.1,1-.19,2.08-.31,3.13a.33.33,0,0,1-.66,0C178.63,398.1,179.06,393.85,179.51,389.63Z" style="fill:#263238"></path><path d="M194.92,319.67c.46-2.58,1.15-5.09,1.84-7.61,0-.08.13,0,.12,0-.65,2.47-1.1,5-1.57,7.51s-.89,5.13-1.25,7.71c0,0-.08,0-.07,0A65.3,65.3,0,0,1,194.92,319.67Z" style="fill:#263238"></path><path d="M205.84,326.65a46.38,46.38,0,0,1,5.51-3.1q1.38-.71,2.79-1.38c1-.47,2-.86,2.92-1.34.07,0,.13.07.06.11-.93.46-1.81,1-2.72,1.52L211.59,324a62.13,62.13,0,0,1-5.62,2.9A.14.14,0,0,1,205.84,326.65Z" style="fill:#263238"></path><path d="M175.38,345.18s-16-3.83-23.38-14.57c-7-10.27-9.29-27.76-9.48-29.3.29,1.41,3.6,16.7,14.51,23.82C165.38,330.59,173.45,335.08,175.38,345.18Z" style="fill:#263238;opacity:0.1"></path><path d="M160.59,317.5a20.51,20.51,0,0,1,5.91,9.73s0,0-.05,0a23.9,23.9,0,0,0-5.94-9.66S160.54,317.45,160.59,317.5Z" style="fill:#263238"></path><path d="M175.38,345.18s-16-3.83-23.38-14.57c-7-10.27-9.29-27.76-9.48-29.3a.87.87,0,0,1,0-.11s7.68,10.92,15.76,13.71S177.69,327.33,175.38,345.18Z" style="fill:#BC87D6"></path><path d="M145.35,307.22a64,64,0,0,0,5,8.47,33.88,33.88,0,0,0,6.59,6.78c2.18,1.73,4.48,3.3,6.68,5a.56.56,0,0,1,0-.08c-.41-.61-.86-1.21-1.31-1.79-.92-1.17-1.92-2.28-2.93-3.37-2-2.16-4-4.28-5.81-6.62a23.84,23.84,0,0,1-2.57-4.14c0-.06.08-.1.11,0,2.6,5.41,7.79,8.87,11.5,13.45.52.65,1,1.32,1.48,2a8.67,8.67,0,0,1,.92,1.63,33.22,33.22,0,0,1,5.46,5.53,21.16,21.16,0,0,0-.64-3.11,15.6,15.6,0,0,0-1.7-4.06c0-.07.06-.13.1-.07a19.65,19.65,0,0,1,1.87,4,14.23,14.23,0,0,1,.58,3.46h0a33.29,33.29,0,0,1,2.17,3.37c-.07-.34-.14-.68-.2-1-.32-1.59-.67-3.18-1.09-4.76a28.41,28.41,0,0,0-3.85-9,.06.06,0,0,1,.1-.07,34.48,34.48,0,0,1,4.27,8.83c.51,1.57.92,3.17,1.28,4.78.17.79.33,1.58.48,2.38.08.41.17.83.23,1.25a57.49,57.49,0,0,1,3.7,10.86,161.36,161.36,0,0,1,3.42,20.26,168,168,0,0,1,1.1,21.51c0,.9-.07,1.8-.12,2.7,0,.23-.36.26-.37,0-.15-3.56-.25-7.11-.46-10.67s-.52-7.1-.9-10.64A185.65,185.65,0,0,0,177,353.38c-1.29-5.86-3-11.76-6.18-16.89a31.44,31.44,0,0,0-5.78-6.87c-2.25-2-4.7-3.79-7.07-5.65a38.73,38.73,0,0,1-6.49-6.24,51.16,51.16,0,0,1-5.09-8.27c-.38-.73-.77-1.45-1.15-2.17C145.21,307.22,145.31,307.16,145.35,307.22Z" style="fill:#263238"></path><path d="M148.11,309.57a55,55,0,0,0,3.57,6.24c0,.05,0,.1-.07.05a43.15,43.15,0,0,1-3.61-6.25C148,309.54,148.08,309.5,148.11,309.57Z" style="fill:#263238"></path><path d="M234.17,338.1s.26,22.76-13.36,29.34-20.91,1.09-30.16,3.3l0,0c.35-.54,7-10,17.46-12.64C218.93,355.39,230.9,347.58,234.17,338.1Z" style="fill:#BC87D6"></path><path d="M234.17,338.1s.26,22.76-13.36,29.34-20.91,1.09-30.16,3.3l0,0a51.66,51.66,0,0,1,15.47-4.56C214.73,365.12,231.13,359.53,234.17,338.1Z" style="opacity:0.1"></path><path d="M189.75,371.14a23.21,23.21,0,0,1,5.42-3.67c.29-.14.59-.25.89-.38.14-.18.29-.35.45-.52.41-.42.84-.83,1.29-1.22a18.93,18.93,0,0,1,2.73-2c2.26-1.33,4.73-2.25,7-3.49.06,0,.12.07.05.11-1.14.59-2.24,1.24-3.35,1.89s-2.18,1.23-3.23,1.91a23,23,0,0,0-2.69,2c-.24.21-.47.43-.7.67a36.25,36.25,0,0,1,4.6-1.23c2.49-.5,5-.86,7.5-1.39a35,35,0,0,0,3.61-1c1.13-.91,2.26-1.82,3.33-2.8a27.62,27.62,0,0,0,3.51-3.9c.05-.06.15,0,.1.06a41.75,41.75,0,0,1-5.58,6.16c.59-.23,1.17-.46,1.74-.73a27.94,27.94,0,0,0,11.6-9.65c.05-.06.15,0,.1.07a31.82,31.82,0,0,1-9.38,9,28.25,28.25,0,0,1-5.93,2.81,54.79,54.79,0,0,1-7.37,1.74,52.15,52.15,0,0,0-7.21,1.72,21.89,21.89,0,0,0-6.05,3.18,28.28,28.28,0,0,0-8.16,10.12,50.57,50.57,0,0,0-4.49,16.64c0,.25-.41.25-.39,0C179.82,387.75,182.38,377.79,189.75,371.14Z" style="fill:#263238"></path><path d="M205.55,363.72a7.76,7.76,0,0,1,2.8-2.54,10.19,10.19,0,0,0,3.33-2.75c0-.07.14,0,.1.06a11.36,11.36,0,0,1-2.94,2.63,10.27,10.27,0,0,0-3.2,2.65C205.6,363.82,205.52,363.77,205.55,363.72Z" style="fill:#263238"></path><polygon points="198.33 387.94 197.71 400.46 195.81 438.72 167.25 438.72 165.35 400.46 164.73 387.94 198.33 387.94" style="fill:#37474f"></polygon><polygon points="198.33 387.94 197.71 400.46 165.35 400.46 164.73 387.94 198.33 387.94" style="fill:#263238"></polygon><rect x="162.73" y="382.72" width="37.6" height="11.94" style="fill:#37474f"></rect></g><g id="freepik--speech-bubble--inject-25"><path d="M366,131.82a10.86,10.86,0,0,0,1.87-6c0-7.62-8.38-13.8-18.7-13.8s-18.68,6.18-18.68,13.8,8.36,13.81,18.68,13.81a22.47,22.47,0,0,0,12.9-3.82l6.44,1.63Z" style="fill:#fff"></path><path d="M366,131.82a10.94,10.94,0,0,0,1.78-5.69,10.71,10.71,0,0,0-1.58-5.71,17,17,0,0,0-9.44-7A25,25,0,0,0,345,112.7a19.57,19.57,0,0,0-10.52,5.18,12.08,12.08,0,0,0-3.07,5,9.92,9.92,0,0,0-.08,5.76,12.06,12.06,0,0,0,3,5,17.36,17.36,0,0,0,4.81,3.45,21.56,21.56,0,0,0,5.66,1.84,24.83,24.83,0,0,0,6,.41A22.06,22.06,0,0,0,362,135.65l.06-.05.08,0,6.42,1.72-.1.12Zm0,0,2.58,5.57.07.15-.17,0L362.05,136l.14,0a22.2,22.2,0,0,1-11.44,3.9,24,24,0,0,1-11.95-2.2,18,18,0,0,1-5-3.55,12.89,12.89,0,0,1-3.19-5.29,10.58,10.58,0,0,1,.05-6.18,13.05,13.05,0,0,1,3.28-5.24,20.19,20.19,0,0,1,10.92-5.31A24.4,24.4,0,0,1,357,113a17.16,17.16,0,0,1,9.56,7.29,10.91,10.91,0,0,1,1.46,5.87A11,11,0,0,1,366,131.82Z" style="fill:#263238"></path><path d="M342.48,125.8a1.94,1.94,0,1,1-1.94-1.94A1.94,1.94,0,0,1,342.48,125.8Z" style="fill:#263238"></path><path d="M351.14,125.8a1.94,1.94,0,1,1-1.94-1.94A1.94,1.94,0,0,1,351.14,125.8Z" style="fill:#263238"></path><path d="M359.8,125.8a1.94,1.94,0,1,1-1.93-1.94A1.93,1.93,0,0,1,359.8,125.8Z" style="fill:#263238"></path></g></svg>