<svg width="200" height="200" viewBox="0 0 200 200" fill="none" xmlns="http://www.w3.org/2000/svg">
<path d="M109.375 10.3448V27.5862H121.688C125.488 27.5862 129.225 28.6897 132.525 30.7724L148.651 40.9241C149.134 41.2276 149.651 41.3793 150.201 41.3793H178.126C180.612 41.3793 182.997 42.4692 184.755 44.4092C186.513 46.3493 187.501 48.9805 187.501 51.7241C187.501 54.4678 186.513 57.099 184.755 59.039C182.997 60.9791 180.612 62.069 178.126 62.069H172.788L199.176 126.786C199.956 128.701 200.189 130.832 199.846 132.896C199.502 134.961 198.597 136.861 197.251 138.345L190.626 131.034L197.239 138.359L197.226 138.386L197.201 138.414L197.126 138.497L197.051 138.566L196.926 138.703L196.364 139.255C193.722 141.692 190.864 143.761 187.789 145.462C181.951 148.69 173.501 151.724 162.501 151.724C153.745 151.837 145.086 149.693 137.213 145.462C134.144 143.771 131.266 141.688 128.638 139.255L128.075 138.703L127.875 138.497L127.8 138.414L127.75 138.359V138.345C126.405 136.861 125.5 134.961 125.156 132.896C124.812 130.832 125.046 128.701 125.825 126.786L152.226 62.069H150.201C146.388 62.069 142.65 60.9793 139.35 58.8828L123.225 48.731C122.753 48.4331 122.219 48.2762 121.675 48.2759H109.375V179.31H140.625C143.112 179.31 145.496 180.4 147.255 182.34C149.013 184.28 150.001 186.912 150.001 189.655C150.001 192.399 149.013 195.03 147.255 196.97C145.496 198.91 143.112 200 140.625 200H59.3745C56.8881 200 54.5035 198.91 52.7453 196.97C50.9871 195.03 49.9994 192.399 49.9994 189.655C49.9994 186.912 50.9871 184.28 52.7453 182.34C54.5035 180.4 56.8881 179.31 59.3745 179.31H90.6249V48.2759H78.3247C77.781 48.2762 77.2467 48.4331 76.7747 48.731L60.662 58.8965C57.3495 60.9655 53.612 62.069 49.7994 62.069H47.7744L74.1747 126.786C74.9545 128.701 75.188 130.832 74.8441 132.896C74.5003 134.961 73.5954 136.861 72.2497 138.345L65.6246 131.034L72.2372 138.359L72.2247 138.386L72.1997 138.414L72.1247 138.497L71.9247 138.703L71.3622 139.255C68.7205 141.692 65.8621 143.761 62.7871 145.462C56.9495 148.69 48.4994 151.724 37.4993 151.724C28.7432 151.837 20.0841 149.693 12.2115 145.462C9.14247 143.771 6.26434 141.688 3.63637 139.255L3.07387 138.703L2.87387 138.497L2.79887 138.414L2.74886 138.359V138.345C1.40312 136.861 0.498246 134.961 0.154413 132.896C-0.18942 130.832 0.0440586 128.701 0.823842 126.786L27.2241 62.069H21.8741C19.3877 62.069 17.0031 60.9791 15.2449 59.039C13.4867 57.099 12.499 54.4678 12.499 51.7241C12.499 48.9805 13.4867 46.3493 15.2449 44.4092C17.0031 42.4692 19.3877 41.3793 21.8741 41.3793H49.7994C50.3474 41.3814 50.8863 41.2244 51.3619 40.9241L67.4621 30.7586C70.7747 28.6897 74.5122 27.5862 78.3247 27.5862H90.6249V10.3448C90.6249 7.60121 91.6126 4.96996 93.3708 3.02993C95.129 1.0899 97.5136 0 100 0C102.486 0 104.871 1.0899 106.629 3.02993C108.387 4.96996 109.375 7.60121 109.375 10.3448ZM146.188 127.269C149.751 129.131 155.163 131.034 162.501 131.034C169.838 131.034 175.251 129.131 178.813 127.269L162.501 87.269L146.188 127.269ZM21.1866 127.269C24.7491 129.131 30.1617 131.034 37.4993 131.034C44.8369 131.034 50.2494 129.131 53.812 127.269L37.4993 87.269L21.1866 127.269Z" fill="url(#paint0_linear_165_43)"/>
<defs>
<linearGradient id="paint0_linear_165_43" x1="100" y1="0" x2="100" y2="200" gradientUnits="userSpaceOnUse">
<stop stop-color="#749FE0"/>
<stop offset="1" stop-color="#3F577A"/>
</linearGradient>
</defs>
</svg>
