<svg width="60" height="60" viewBox="0 0 60 60" fill="none" xmlns="http://www.w3.org/2000/svg">
<circle cx="30" cy="30" r="30" fill="#1A709B" fill-opacity="0.2"/>
<path fill-rule="evenodd" clip-rule="evenodd" d="M28.3395 50.4562C28.3395 50.4562 12 38.4708 12 26.6774C12 22.5195 13.8964 18.5319 17.2721 15.5918C20.6477 12.6517 25.2261 11 30 11C34.7739 11 39.3523 12.6517 42.7279 15.5918C46.1036 18.5319 48 22.5195 48 26.6774C48 38.4708 31.6605 50.4562 31.6605 50.4562C30.7515 51.1852 29.2553 51.1773 28.3395 50.4562ZM30 33.5363C31.0342 33.5363 32.0582 33.3589 33.0136 33.0142C33.9691 32.6695 34.8372 32.1643 35.5685 31.5274C36.2997 30.8905 36.8798 30.1344 37.2756 29.3022C37.6713 28.4701 37.875 27.5782 37.875 26.6774C37.875 25.7767 37.6713 24.8848 37.2756 24.0527C36.8798 23.2205 36.2997 22.4644 35.5685 21.8275C34.8372 21.1906 33.9691 20.6853 33.0136 20.3407C32.0582 19.996 31.0342 19.8186 30 19.8186C27.9114 19.8186 25.9084 20.5412 24.4315 21.8275C22.9547 23.1138 22.125 24.8583 22.125 26.6774C22.125 28.4965 22.9547 30.2411 24.4315 31.5274C25.9084 32.8137 27.9114 33.5363 30 33.5363Z" fill="#1A709B"/>
</svg>
