<svg width="170" height="170" viewBox="0 0 170 170" fill="none" xmlns="http://www.w3.org/2000/svg">
<path d="M28.3335 78.6251V45.1563C28.3335 42.2049 29.1906 39.5487 30.9047 37.1876C32.6189 34.8265 34.8313 33.1147 37.5418 32.0522L80.0418 16.1147C81.6946 15.5244 83.3474 15.2292 85.0002 15.2292C86.6529 15.2292 88.3057 15.5244 89.9585 16.1147L132.459 32.0522C135.174 33.1147 137.389 34.8265 139.103 37.1876C140.817 39.5487 141.672 42.2049 141.667 45.1563V70.8334C137.771 70.8334 134.437 72.2217 131.665 74.9984C128.893 77.7751 127.505 81.109 127.5 85.0001V117.583L109.438 99.5209C110.736 97.2779 111.711 94.9474 112.363 92.5297C113.015 90.1119 113.338 87.602 113.333 85.0001C113.333 77.2084 110.559 70.5383 105.011 64.9897C99.462 59.4411 92.7918 56.6667 85.0002 56.6667C77.2085 56.6667 70.5384 59.4411 64.9897 64.9897C59.4411 70.5383 56.6668 77.2084 56.6668 85.0001C56.6668 92.7918 59.4411 99.4619 64.9897 105.01C70.5384 110.559 77.2085 113.333 85.0002 113.333C87.4793 113.333 89.9302 113.01 92.3527 112.363C94.7752 111.716 97.0466 110.741 99.1668 109.438L121.834 132.104C117.229 137.181 112.566 141.52 107.844 145.123C103.122 148.726 97.6321 151.647 91.3752 153.886C90.3127 154.24 89.2502 154.506 88.1877 154.686C87.1252 154.865 86.0627 154.953 85.0002 154.948C83.9377 154.943 82.8468 154.856 81.7277 154.686C80.6085 154.516 79.5153 154.249 78.4481 153.886C63.6911 148.573 51.6495 138.892 42.3231 124.844C32.9967 110.795 28.3335 95.389 28.3335 78.6251ZM85.0002 99.1668C88.896 99.1668 92.2323 97.7808 95.0089 95.0088C97.7856 92.2369 99.1716 88.9006 99.1668 85.0001C99.1621 81.0995 97.7761 77.7656 95.0089 74.9984C92.2417 72.2312 88.9054 70.8429 85.0002 70.8334C81.0949 70.824 77.761 72.2123 74.9985 74.9984C72.236 77.7845 70.8477 81.1184 70.8335 85.0001C70.8193 88.8818 72.2077 92.218 74.9985 95.0088C77.7893 97.7997 81.1232 99.1856 85.0002 99.1668ZM148.75 155.833C146.743 155.833 145.062 155.153 143.707 153.793C142.352 152.433 141.672 150.752 141.667 148.75C141.662 146.748 142.342 145.067 143.707 143.707C145.072 142.347 146.753 141.667 148.75 141.667C150.748 141.667 152.431 142.347 153.801 143.707C155.17 145.067 155.848 146.748 155.833 148.75C155.819 150.752 155.139 152.436 153.793 153.801C152.448 155.165 150.767 155.843 148.75 155.833ZM141.667 120.417V92.0834C141.667 90.0765 142.347 88.3954 143.707 87.0401C145.067 85.6848 146.748 85.0048 148.75 85.0001C150.752 84.9954 152.436 85.6754 153.801 87.0401C155.165 88.4048 155.843 90.0859 155.833 92.0834V120.417C155.833 122.424 155.153 124.107 153.793 125.467C152.433 126.827 150.752 127.505 148.75 127.5C146.748 127.495 145.067 126.815 143.707 125.46C142.347 124.105 141.667 122.424 141.667 120.417Z" fill="url(#paint0_linear_124_99)"/>
<defs>
<linearGradient id="paint0_linear_124_99" x1="92.0836" y1="15.2292" x2="92.0836" y2="155.834" gradientUnits="userSpaceOnUse">
<stop stop-color="#467DCF"/>
<stop offset="1" stop-color="#244069"/>
</linearGradient>
</defs>
</svg>
