<svg width="170" height="170" viewBox="0 0 170 170" fill="none" xmlns="http://www.w3.org/2000/svg">
<path d="M35.4165 42.5001C27.6248 42.5001 21.2498 48.8751 21.2498 56.6667C21.2498 64.4584 27.6248 70.8334 35.4165 70.8334C43.2082 70.8334 49.5832 64.5293 49.5832 56.6667C49.5832 48.8042 43.279 42.5001 35.4165 42.5001ZM84.9998 28.3334C82.1979 28.3334 79.459 29.1643 77.1293 30.7209C74.7996 32.2776 72.9838 34.4901 71.9115 37.0787C70.8393 39.6674 70.5588 42.5158 71.1054 45.2639C71.652 48.0119 73.0013 50.5362 74.9825 52.5174C76.9637 54.4987 79.488 55.8479 82.2361 56.3945C84.9841 56.9412 87.8326 56.6606 90.4212 55.5884C93.0098 54.5161 95.2223 52.7004 96.779 50.3707C98.3356 48.041 99.1665 45.302 99.1665 42.5001C99.1665 34.6376 92.8623 28.3334 84.9998 28.3334ZM134.583 14.1667C126.792 14.1667 120.417 20.5417 120.417 28.3334C120.417 36.1251 126.792 42.5001 134.583 42.5001C142.375 42.5001 148.75 36.1959 148.75 28.3334C148.75 20.4709 142.446 14.1667 134.583 14.1667ZM24.7915 77.9167C18.9123 77.9167 14.1665 82.6626 14.1665 88.5417V120.417H21.2498V155.833H49.5832V120.417H56.6665V88.5417C56.6665 82.6626 51.9207 77.9167 46.0415 77.9167H24.7915ZM74.3748 63.7501C68.4957 63.7501 63.7498 68.4959 63.7498 74.3751V106.25H70.8332V141.667H99.1665V106.25H106.25V74.3751C106.25 68.4959 101.504 63.7501 95.6248 63.7501H74.3748ZM123.958 49.5834C118.079 49.5834 113.333 54.3293 113.333 60.2084V92.0834H120.417V127.5H148.75V92.0834H155.833V60.2084C155.833 54.3293 151.087 49.5834 145.208 49.5834H123.958Z" fill="url(#paint0_linear_124_73)"/>
<defs>
<linearGradient id="paint0_linear_124_73" x1="84.9998" y1="14.1667" x2="84.9998" y2="155.833" gradientUnits="userSpaceOnUse">
<stop stop-color="#749FE0"/>
<stop offset="1" stop-color="#3F577A"/>
</linearGradient>
</defs>
</svg>
