<svg width="180" height="180" viewBox="0 0 180 180" fill="none" xmlns="http://www.w3.org/2000/svg">
<path d="M157.5 52.5C159.489 52.5 161.397 53.2902 162.803 54.6967C164.21 56.1032 165 58.0109 165 60C165 61.9891 164.21 63.8968 162.803 65.3033C161.397 66.7098 159.489 67.5 157.5 67.5V142.5C159.489 142.5 161.397 143.29 162.803 144.697C164.21 146.103 165 148.011 165 150C165 151.989 164.21 153.897 162.803 155.303C161.397 156.71 159.489 157.5 157.5 157.5H22.5C20.5109 157.5 18.6032 156.71 17.1967 155.303C15.7902 153.897 15 151.989 15 150C15 148.011 15.7902 146.103 17.1967 144.697C18.6032 143.29 20.5109 142.5 22.5 142.5V67.5C20.5109 67.5 18.6032 66.7098 17.1967 65.3033C15.7902 63.8968 15 61.9891 15 60C15 58.0109 15.7902 56.1032 17.1967 54.6967C18.6032 53.2902 20.5109 52.5 22.5 52.5H157.5ZM52.5 82.5C50.5109 82.5 48.6032 83.2902 47.1967 84.6967C45.7902 86.1032 45 88.0109 45 90V142.5H60V90C60 88.0109 59.2098 86.1032 57.8033 84.6967C56.3968 83.2902 54.4891 82.5 52.5 82.5ZM90 82.5C88.0109 82.5 86.1032 83.2902 84.6967 84.6967C83.2902 86.1032 82.5 88.0109 82.5 90V142.5H97.5V90C97.5 88.0109 96.7098 86.1032 95.3033 84.6967C93.8968 83.2902 91.9891 82.5 90 82.5ZM127.5 82.5C125.511 82.5 123.603 83.2902 122.197 84.6967C120.79 86.1032 120 88.0109 120 90V142.5H135V90C135 88.0109 134.21 86.1032 132.803 84.6967C131.397 83.2902 129.489 82.5 127.5 82.5ZM135 30C136.989 30 138.897 30.7902 140.303 32.1967C141.71 33.6032 142.5 35.5109 142.5 37.5C142.5 39.4891 141.71 41.3968 140.303 42.8033C138.897 44.2098 136.989 45 135 45H45C43.0109 45 41.1032 44.2098 39.6967 42.8033C38.2902 41.3968 37.5 39.4891 37.5 37.5C37.5 35.5109 38.2902 33.6032 39.6967 32.1967C41.1032 30.7902 43.0109 30 45 30H135Z" fill="url(#paint0_linear_124_42)"/>
<defs>
<linearGradient id="paint0_linear_124_42" x1="90" y1="30" x2="90" y2="157.5" gradientUnits="userSpaceOnUse">
<stop stop-color="#749FE0"/>
<stop offset="1" stop-color="#3F577A"/>
</linearGradient>
</defs>
</svg>
