<svg width="100" height="100" viewBox="0 0 100 100" fill="none" xmlns="http://www.w3.org/2000/svg">
<path d="M45.8334 75.0001H54.1667V87.5001H45.8334V75.0001ZM66.6667 87.5001V95.8334H33.3334V87.5001H66.6667ZM83.3334 75.0001H16.6667C13.3526 74.9968 10.1751 73.6787 7.83157 71.3353C5.48808 68.9918 4.17006 65.8143 4.16675 62.5001V16.6667C4.17006 13.3526 5.48808 10.1751 7.83157 7.83157C10.1751 5.48808 13.3526 4.17006 16.6667 4.16675H83.3334C86.6476 4.17006 89.8251 5.48808 92.1686 7.83157C94.5121 10.1751 95.8301 13.3526 95.8334 16.6667V62.5001C95.8301 65.8143 94.5121 68.9918 92.1686 71.3353C89.8251 73.6787 86.6476 74.9968 83.3334 75.0001ZM16.6667 12.5001C15.5617 12.5001 14.5019 12.9391 13.7205 13.7205C12.9391 14.5019 12.5001 15.5617 12.5001 16.6667V62.5001C12.5001 63.6051 12.9391 64.665 13.7205 65.4464C14.5019 66.2278 15.5617 66.6667 16.6667 66.6667H83.3334C84.4385 66.6667 85.4983 66.2278 86.2797 65.4464C87.0611 64.665 87.5001 63.6051 87.5001 62.5001V16.6667C87.5001 15.5617 87.0611 14.5019 86.2797 13.7205C85.4983 12.9391 84.4385 12.5001 83.3334 12.5001H16.6667Z" fill="#749FE0"/>
<path d="M66.6666 62.5001L58.6916 35.9167L54.1666 54.1667L48.7124 41.6667H47.3333L41.6666 58.3334L36.8458 41.3876L34.6208 45.8334H20.8333V41.6667H32.0458L37.4999 29.1667L41.9499 44.6376L44.3333 37.5001H51.2874L53.3166 41.5542L58.3333 16.6667L66.6666 50.0001L69.3332 41.6667H79.1666V45.8334H72.3333L66.6666 62.5001Z" fill="#749FE0"/>
</svg>
