<svg width="210" height="210" viewBox="0 0 210 210" fill="none" xmlns="http://www.w3.org/2000/svg">
<path d="M95.1332 79.879C95.1332 73.9424 93.9676 68.0639 91.7028 62.5792C89.438 57.0945 86.1185 52.1109 81.9337 47.9131C74.7142 40.6493 65.2378 36.0772 55.074 34.9539M95.1332 79.879C95.1332 91.8684 90.3851 103.367 81.9335 111.845C73.4818 120.322 62.019 125.085 50.0666 125.085C38.1142 125.085 26.6513 120.322 18.1997 111.845C9.74807 103.367 5 91.8684 5 79.879M95.1332 79.879H5M5 79.879C4.99995 73.9424 6.16559 68.0639 8.43036 62.5792C10.6951 57.0945 14.0147 52.1109 18.1995 47.9131M159.038 194.733L194.33 159.332C201.221 152.263 205.054 142.754 204.999 132.867C204.944 122.981 201.005 113.515 194.035 106.524C187.066 99.5336 177.63 95.5817 167.774 95.5264C157.918 95.4712 148.438 99.317 141.392 106.229L106.099 141.631C101.31 146.434 97.9093 152.45 96.2593 159.038C94.6092 165.626 94.7718 172.54 96.7296 179.044C98.6875 185.547 102.367 191.395 107.377 195.966C112.387 200.537 118.539 203.659 125.178 205M132.759 56.2612C135.53 59.1403 138.844 61.437 142.509 63.0173C146.175 64.5977 150.117 65.43 154.106 65.4657C158.095 65.5014 162.052 64.7398 165.744 63.2253C169.437 61.7109 172.792 59.4739 175.614 56.6448C178.435 53.8158 180.667 50.4514 182.179 46.748C183.69 43.0446 184.451 39.0763 184.418 35.0746C184.384 31.073 183.556 27.1181 181.982 23.4409C180.408 19.7636 178.12 16.4375 175.252 13.6568C169.602 8.08022 161.985 4.9688 154.059 5.00024C146.133 5.03167 138.541 8.20341 132.936 13.8246C127.331 19.4457 124.167 27.0609 124.134 35.0113C124.101 42.9617 127.201 50.6032 132.759 56.2712V56.2612Z" stroke="url(#paint0_linear_165_22)" stroke-width="10" stroke-linecap="round"/>
<path d="M125.178 125.364C125.178 125.364 127.992 140.031 144.316 156.405C160.64 172.78 175.252 175.593 175.252 175.593" stroke="url(#paint1_linear_165_22)" stroke-width="10"/>
<defs>
<linearGradient id="paint0_linear_165_22" x1="105" y1="5" x2="105" y2="205" gradientUnits="userSpaceOnUse">
<stop stop-color="#467DCF"/>
<stop offset="1" stop-color="#244069"/>
</linearGradient>
<linearGradient id="paint1_linear_165_22" x1="150.215" y1="125.364" x2="150.215" y2="175.593" gradientUnits="userSpaceOnUse">
<stop stop-color="#467DCF"/>
<stop offset="1" stop-color="#244069"/>
</linearGradient>
</defs>
</svg>
