<svg width="60" height="60" viewBox="0 0 60 60" fill="none" xmlns="http://www.w3.org/2000/svg">
<circle cx="30" cy="30" r="30" fill="#1A709B" fill-opacity="0.2"/>
<path d="M42.0514 49.9996C40.3081 49.9996 37.8594 49.3693 34.1926 47.321C29.7337 44.821 26.2847 42.513 21.8499 38.0906C17.574 33.8182 15.4932 31.0521 12.581 25.7538C9.29109 19.7716 9.85192 16.6359 10.4788 15.2957C11.2254 13.6939 12.3274 12.7358 13.7518 11.7849C14.5609 11.2549 15.417 10.8006 16.3095 10.4277C16.3988 10.3894 16.4818 10.3527 16.556 10.3197C16.998 10.1206 17.6678 9.81971 18.5162 10.1411C19.0824 10.3536 19.5878 10.7885 20.3791 11.5697C22.0017 13.1697 24.2191 16.7332 25.0372 18.4832C25.5864 19.6627 25.9499 20.4413 25.9507 21.3145C25.9507 22.3368 25.4364 23.1252 24.8121 23.9761C24.6951 24.1359 24.579 24.2886 24.4665 24.4368C23.7869 25.3297 23.6378 25.5878 23.736 26.0485C23.9352 26.9744 25.4203 29.7307 27.861 32.1655C30.3016 34.6004 32.979 35.9914 33.9086 36.1897C34.3891 36.2923 34.6525 36.137 35.5741 35.4334C35.7063 35.3325 35.8421 35.228 35.984 35.1236C36.936 34.4155 37.688 33.9146 38.6864 33.9146H38.6917C39.5607 33.9146 40.3046 34.2914 41.537 34.9129C43.1444 35.7236 46.8157 37.912 48.4259 39.5361C49.2091 40.3254 49.6458 40.829 49.8592 41.3942C50.1807 42.2451 49.878 42.9121 49.6806 43.3585C49.6475 43.4326 49.6109 43.5139 49.5725 43.604C49.1966 44.4947 48.7396 45.3489 48.2071 46.1559C47.2578 47.5755 46.296 48.6746 44.6903 49.422C43.8658 49.8119 42.9634 50.0095 42.0514 49.9996Z" fill="#1A709B"/>
</svg>
