<svg width="100" height="100" viewBox="0 0 100 100" fill="none" xmlns="http://www.w3.org/2000/svg">
<path d="M16.6667 46.2502V26.5627C16.6667 24.8266 17.1709 23.2641 18.1792 21.8752C19.1876 20.4863 20.489 19.4793 22.0834 18.8543L47.0834 9.47933C48.0556 9.13211 49.0279 8.9585 50.0001 8.9585C50.9723 8.9585 51.9445 9.13211 52.9168 9.47933L77.9168 18.8543C79.514 19.4793 80.8168 20.4863 81.8251 21.8752C82.8334 23.2641 83.3362 24.8266 83.3334 26.5627V41.6668C81.0418 41.6668 79.0806 42.4835 77.4501 44.1168C75.8195 45.7502 75.0029 47.7113 75.0001 50.0002V69.1668L64.3751 58.5418C65.139 57.2224 65.7126 55.8516 66.0959 54.4293C66.4793 53.0071 66.6695 51.5307 66.6668 50.0002C66.6668 45.4168 65.0348 41.4932 61.7709 38.2293C58.507 34.9654 54.5834 33.3335 50.0001 33.3335C45.4167 33.3335 41.4931 34.9654 38.2292 38.2293C34.9654 41.4932 33.3334 45.4168 33.3334 50.0002C33.3334 54.5835 34.9654 58.5071 38.2292 61.771C41.4931 65.0349 45.4167 66.6668 50.0001 66.6668C51.4584 66.6668 52.9001 66.4765 54.3251 66.096C55.7501 65.7154 57.0862 65.1418 58.3334 64.3752L71.6668 77.7085C68.9584 80.6946 66.2154 83.2474 63.4376 85.3668C60.6598 87.4863 57.4306 89.2043 53.7501 90.521C53.1251 90.7293 52.5001 90.8863 51.8751 90.9918C51.2501 91.0974 50.6251 91.1488 50.0001 91.146C49.3751 91.1432 48.7334 91.0918 48.0751 90.9918C47.4167 90.8918 46.7737 90.7349 46.1459 90.521C37.4654 87.396 30.382 81.7016 24.8959 73.4377C19.4098 65.1738 16.6667 56.1113 16.6667 46.2502ZM50.0001 58.3335C52.2918 58.3335 54.2542 57.5182 55.8876 55.8877C57.5209 54.2571 58.3362 52.2946 58.3334 50.0002C58.3306 47.7057 57.5154 45.7446 55.8876 44.1168C54.2598 42.489 52.2973 41.6724 50.0001 41.6668C47.7029 41.6613 45.7418 42.4779 44.1168 44.1168C42.4918 45.7557 41.6751 47.7168 41.6667 50.0002C41.6584 52.2835 42.4751 54.246 44.1168 55.8877C45.7584 57.5293 47.7195 58.3446 50.0001 58.3335ZM87.5001 91.6668C86.3195 91.6668 85.3306 91.2668 84.5334 90.4668C83.7362 89.6668 83.3362 88.6779 83.3334 87.5002C83.3306 86.3224 83.7306 85.3335 84.5334 84.5335C85.3362 83.7335 86.3251 83.3335 87.5001 83.3335C88.6751 83.3335 89.6654 83.7335 90.4709 84.5335C91.2765 85.3335 91.6751 86.3224 91.6668 87.5002C91.6584 88.6779 91.2584 89.6682 90.4668 90.471C89.6751 91.2738 88.6862 91.6724 87.5001 91.6668ZM83.3334 70.8335V54.1668C83.3334 52.9863 83.7334 51.9974 84.5334 51.2002C85.3334 50.4029 86.3223 50.0029 87.5001 50.0002C88.6779 49.9974 89.6681 50.3974 90.4709 51.2002C91.2737 52.0029 91.6723 52.9918 91.6668 54.1668V70.8335C91.6668 72.014 91.2668 73.0043 90.4668 73.8043C89.6668 74.6043 88.6779 75.0029 87.5001 75.0002C86.3223 74.9974 85.3334 74.5974 84.5334 73.8002C83.7334 73.0029 83.3334 72.014 83.3334 70.8335Z" fill="#467DCF"/>
</svg>
