<svg width="180" height="180" viewBox="0 0 180 180" fill="none" xmlns="http://www.w3.org/2000/svg">
<path d="M158.203 45C155.689 45.0008 153.21 45.5877 150.963 46.714C148.715 47.8403 146.761 49.475 145.256 51.4884C143.751 53.5018 142.736 55.8384 142.291 58.3127C141.847 60.787 141.985 63.3308 142.696 65.7422L117.605 90.8297C114.296 89.7274 110.718 89.7274 107.409 90.8297L88.8082 72.2285C89.4203 69.84 89.4782 67.3433 88.9774 64.929C88.4766 62.5147 87.4303 60.247 85.9187 58.2991C84.407 56.3512 82.47 54.7747 80.2556 53.6902C78.0413 52.6057 75.6083 52.042 73.1426 52.042C70.677 52.042 68.244 52.6057 66.0296 53.6902C63.8153 54.7747 61.8782 56.3512 60.3666 58.2991C58.8549 60.247 57.8087 62.5147 57.3079 64.929C56.807 67.3433 56.8649 69.84 57.477 72.2285L26.3672 103.317C22.9134 102.295 19.2173 102.453 15.8632 103.766C12.5091 105.079 9.68825 107.473 7.84661 110.568C6.00498 113.664 5.24756 117.285 5.69407 120.859C6.14058 124.433 7.76555 127.757 10.3121 130.304C12.8587 132.852 16.1817 134.478 19.7558 134.925C23.3298 135.373 26.9512 134.617 30.0474 132.776C33.1436 130.935 35.5381 128.115 36.8523 124.762C38.1665 121.408 38.3256 117.712 37.3043 114.258L68.0204 83.5453C71.3293 84.6484 74.9067 84.6484 78.2157 83.5453L96.8204 102.15C96.2083 104.538 96.1504 107.035 96.6512 109.45C97.152 111.864 98.1983 114.132 99.7099 116.079C101.222 118.027 103.159 119.604 105.373 120.688C107.587 121.773 110.02 122.337 112.486 122.337C114.952 122.337 117.385 121.773 119.599 120.688C121.813 119.604 123.75 118.027 125.262 116.079C126.774 114.132 127.82 111.864 128.321 109.45C128.822 107.035 128.764 104.538 128.152 102.15L153.633 76.6828C155.857 77.3391 158.197 77.5092 160.493 77.1816C162.789 76.854 164.988 76.0364 166.94 74.7842C168.892 73.5319 170.552 71.8744 171.808 69.9241C173.063 67.9738 173.884 65.7764 174.215 63.4808C174.546 61.1852 174.38 58.8453 173.727 56.6198C173.074 54.3942 171.95 52.3351 170.431 50.5822C168.913 48.8293 167.035 47.4236 164.925 46.4604C162.815 45.4972 160.522 44.9992 158.203 45Z" fill="url(#paint0_linear_124_18)"/>
<defs>
<linearGradient id="paint0_linear_124_18" x1="89.9749" y1="45" x2="89.9749" y2="135.051" gradientUnits="userSpaceOnUse">
<stop stop-color="#749FE0"/>
<stop offset="1" stop-color="#3F577A"/>
</linearGradient>
</defs>
</svg>
