<svg width="100" height="100" viewBox="0 0 100 100" fill="none" xmlns="http://www.w3.org/2000/svg">
<path d="M87.8907 25C86.4941 25.0005 85.1168 25.3265 83.8683 25.9522C82.6197 26.5779 81.5342 27.4861 80.6979 28.6047C79.8617 29.7232 79.2977 31.0213 79.0508 32.3959C78.8038 33.7705 78.8808 35.1838 79.2755 36.5234L65.336 50.4609C63.4977 49.8485 61.5103 49.8485 59.672 50.4609L49.338 40.127C49.678 38.8 49.7102 37.4129 49.4319 36.0717C49.1537 34.7304 48.5725 33.4705 47.7326 32.3884C46.8928 31.3062 45.8167 30.4304 44.5865 29.8279C43.3563 29.2254 42.0047 28.9122 40.6348 28.9122C39.265 28.9122 37.9134 29.2254 36.6832 29.8279C35.453 30.4304 34.3769 31.3062 33.537 32.3884C32.6972 33.4705 32.116 34.7304 31.8378 36.0717C31.5595 37.4129 31.5917 38.8 31.9317 40.127L14.6485 57.3984C12.7297 56.8305 10.6763 56.9182 8.81292 57.6477C6.94953 58.3772 5.38242 59.707 4.35928 61.4268C3.33615 63.1466 2.91536 65.1583 3.16342 67.144C3.41149 69.1296 4.31425 70.976 5.72902 72.3912C7.1438 73.8065 8.98988 74.7098 10.9755 74.9585C12.9611 75.2072 14.9729 74.7871 16.6931 73.7645C18.4132 72.7419 19.7434 71.1752 20.4736 69.3121C21.2037 67.4489 21.2921 65.3956 20.7247 63.4766L37.7891 46.4141C39.6274 47.0269 41.6149 47.0269 43.4532 46.4141L53.7891 56.75C53.4491 58.0769 53.4169 59.464 53.6952 60.8053C53.9734 62.1465 54.5547 63.4064 55.3945 64.4886C56.2343 65.5707 57.3104 66.4465 58.5406 67.049C59.7708 67.6515 61.1225 67.9648 62.4923 67.9648C63.8621 67.9648 65.2137 67.6515 66.4439 67.049C67.6741 66.4465 68.7503 65.5707 69.5901 64.4886C70.4299 63.4064 71.0111 62.1465 71.2894 60.8053C71.5676 59.464 71.5354 58.0769 71.1954 56.75L85.3516 42.6016C86.5875 42.9662 87.8873 43.0607 89.1629 42.8787C90.4385 42.6967 91.66 42.2424 92.7446 41.5468C93.8292 40.8511 94.7514 39.9302 95.4488 38.8467C96.1461 37.7632 96.6023 36.5424 96.7862 35.2671C96.9702 33.9918 96.8777 32.6918 96.515 31.4554C96.1523 30.219 95.5279 29.0751 94.6842 28.1012C93.8404 27.1274 92.7971 26.3464 91.6249 25.8113C90.4528 25.2762 89.1792 24.9995 87.8907 25Z" fill="#749FE0"/>
</svg>
