<svg width="200" height="200" viewBox="0 0 200 200" fill="none" xmlns="http://www.w3.org/2000/svg">
<path d="M180.708 150C186.156 150 190.749 152 194.487 156C198.225 160 200.062 164.667 199.998 170L123.69 200L57.1696 180V90H75.7002L144.786 116.9C149.728 118.967 152.199 122.7 152.199 128.1C152.199 131.233 151.122 133.967 148.968 136.3C146.814 138.633 144.09 139.867 140.795 140H114.187L97.557 133.3L94.421 142.7L114.187 150H180.708ZM142.696 12.3C149.411 4.1 157.964 0 168.354 0C176.97 0 184.255 3.33333 190.21 10C196.166 16.6667 199.333 24.3333 199.713 33C199.713 39.8667 196.546 48.0667 190.21 57.6C183.875 67.1333 177.635 75.1 171.49 81.5C165.344 87.9 155.746 97.4 142.696 110C129.518 97.4 119.825 87.9 113.617 81.5C107.408 75.1 101.168 67.1333 94.8961 57.6C88.6242 48.0667 85.5516 39.8667 85.6783 33C85.6783 23.9333 88.7509 16.2667 94.8961 10C101.041 3.73333 108.454 0.4 117.133 0C127.269 0 135.79 4.1 142.696 12.3ZM0 90H38.1637V200H0V90Z" fill="url(#paint0_linear_165_50)"/>
<defs>
<linearGradient id="paint0_linear_165_50" x1="100" y1="0" x2="100" y2="200" gradientUnits="userSpaceOnUse">
<stop stop-color="#467DCF"/>
<stop offset="1" stop-color="#244069"/>
</linearGradient>
</defs>
</svg>
